  0
SECTION
  2
HEADER
  9
$ACADVER
  1
AC1009
  9
$INSBASE
 10
0.0
 20
0.0
 30
0.0
  9
$EXTMIN
 10
0.0
 20
0.0
 30
0.0
  9
$EXTMAX
 10
0.0
 20
0.0
 30
0.0
  0
ENDSEC
  0
SECTION
  2
TABLES
  0
TABLE
  2
VPORT
 70
1
  0
VPORT
  2
*ACTIVE
 70
0
 10
0.0
 20
0.0
 11
1.0
 21
1.0
 12
-5.0
 22
1.0
 13
0.0
 23
0.0
 14
0.1
 24
0.1
 15
0.1
 25
0.1
 16
0.0
 26
0.0
 36
1.0
 17
0.0
 27
0.0
 37
0.0
 40
10.0
 41
1.0
 42
50.0
 43
0.0
 44
0.0
 50
0.0
 51
0.0
 71
0
 72
100
 73
1
 74
1
 75
0
 76
0
 77
0
 78
0
  0
ENDTAB
  0
TABLE
  2
LTYPE
 70
8
  0
LTYPE
  2
CONTINUOUS
 70
0
  3
Solid line
 72
65
 73
0
 40
0.0
  0
LTYPE
  2
DOT
 70
0
  3
. . . . . . .
 72
65
 73
2
 40
0.25
 49
0.0
 49
-0.25
  0
LTYPE
  2
DASHED
 70
0
  3
__ __ __ __ __
 72
65
 73
2
 40
0.8
 49
0.5
 49
-0.3
  0
LTYPE
  2
DASHDOT
 70
0
  3
__ . __ . __ .
 72
65
 73
4
 40
1.0
 49
0.5
 49
-0.25
 49
0.0
 49
-0.25
  0
LTYPE
  2
DIVIDE
 70
0
  3
____ . . ____ . . 
 72
65
 73
6
 40
1.25
 49
0.5
 49
-0.25
 49
0.0
 49
-0.25
 49
0.0
 49
-0.25
  0
LTYPE
  2
BORDER
 70
0
  3
__ __ . __ __ . 
 72
65
 73
6
 40
1.75
 49
0.5
 49
-0.25
 49
0.5
 49
-0.25
 49
0.0
 49
-0.25
  0
LTYPE
  2
HIDDEN
 70
0
  3
__ __ __ __ __
 72
65
 73
2
 40
0.4
 49
0.25
 49
-0.25
  0
LTYPE
  2
CENTER
 70
0
  3
____ _ ____ _ __
 72
65
 73
4
 40
2.0
 49
1.25
 49
-0.25
 49
0.25
 49
-0.25
  0
ENDTAB
  0
TABLE
  2
LAYER
 70
1
  0
LAYER
  2
PYDXF
 70
64
 62
7
  6
continuous
  0
ENDTAB
  0
TABLE
  2
STYLE
 70
1
  0
STYLE
  2
STANDARD
 70
0
 40
0
 41
1.0
 50
0.0
 71
0
 42
1
 3
ARIAL.TTF
 4

  0
ENDTAB
  0
TABLE
  2
VIEW
 70
1
  0
VIEW
  2
BF_TOPVIEW
 70
0
 40
120.0
 10
0.0
 20
0.0
 41
200.0
 11
0.0
 21
0.0
 31
1.0
 12
0.0
 22
0.0
 32
0.0
 42
50.0
 43
0.0
 44
0.0
 50
0.0
 71
0
  0
ENDTAB
  0
ENDSEC
  0
SECTION
  2
BLOCKS
  0
ENDSEC
  0
SECTION
  2
ENTITIES
  0
LINE
  8
0
 10
-568.184814453125
 20
669.0313110351562
 30
30.0
 11
-568.5453491210938
 21
669.0106811523438
 31
30.0
  0
LINE
  8
0
 10
-568.5453491210938
 20
669.0106811523438
 30
30.0
 11
-568.8845825195312
 21
668.9500732421875
 31
30.0
  0
LINE
  8
0
 10
-568.8845825195312
 20
668.9500732421875
 30
30.0
 11
-569.20068359375
 21
668.8511962890625
 31
30.0
  0
LINE
  8
0
 10
-569.20068359375
 20
668.8511962890625
 30
30.0
 11
-569.4916381835938
 21
668.7158203125
 31
30.0
  0
LINE
  8
0
 10
-569.4916381835938
 20
668.7158203125
 30
30.0
 11
-569.755615234375
 21
668.5457153320312
 31
30.0
  0
LINE
  8
0
 10
-569.755615234375
 20
668.5457153320312
 30
30.0
 11
-569.9906005859375
 21
668.3426513671875
 31
30.0
  0
LINE
  8
0
 10
-569.9906005859375
 20
668.3426513671875
 30
30.0
 11
-570.1947021484375
 21
668.1083984375
 31
30.0
  0
LINE
  8
0
 10
-570.1947021484375
 20
668.1083984375
 30
30.0
 11
-570.3660278320312
 21
667.8447265625
 31
30.0
  0
LINE
  8
0
 10
-570.3660278320312
 20
667.8447265625
 30
30.0
 11
-570.5026245117188
 21
667.5534057617188
 31
30.0
  0
LINE
  8
0
 10
-570.5026245117188
 20
667.5534057617188
 30
30.0
 11
-570.6026000976562
 21
667.2362060546875
 31
30.0
  0
LINE
  8
0
 10
-570.6026000976562
 20
667.2362060546875
 30
30.0
 11
-570.6639404296875
 21
666.8948974609375
 31
30.0
  0
LINE
  8
0
 10
-570.6639404296875
 20
666.8948974609375
 30
30.0
 11
-570.684814453125
 21
666.5313110351562
 31
30.0
  0
LINE
  8
0
 10
-570.684814453125
 20
666.5313110351562
 30
30.0
 11
-570.684814453125
 21
663.4288330078125
 31
30.0
  0
LINE
  8
0
 10
-570.684814453125
 20
663.4288330078125
 30
30.0
 11
-570.684814453125
 21
660.3263549804688
 31
30.0
  0
LINE
  8
0
 10
-570.684814453125
 20
660.3263549804688
 30
30.0
 11
-570.684814453125
 21
657.223876953125
 31
30.0
  0
LINE
  8
0
 10
-570.684814453125
 20
657.223876953125
 30
30.0
 11
-570.684814453125
 21
654.1213989257812
 31
30.0
  0
LINE
  8
0
 10
-570.684814453125
 20
654.1213989257812
 30
30.0
 11
-570.684814453125
 21
651.0189208984375
 31
30.0
  0
LINE
  8
0
 10
-570.684814453125
 20
651.0189208984375
 30
30.0
 11
-570.684814453125
 21
647.9164428710938
 31
30.0
  0
LINE
  8
0
 10
-570.684814453125
 20
647.9164428710938
 30
30.0
 11
-570.684814453125
 21
644.81396484375
 31
30.0
  0
LINE
  8
0
 10
-570.684814453125
 20
644.81396484375
 30
30.0
 11
-570.684814453125
 21
641.7114868164062
 31
30.0
  0
LINE
  8
0
 10
-570.684814453125
 20
641.7114868164062
 30
30.0
 11
-570.684814453125
 21
638.6090087890625
 31
30.0
  0
LINE
  8
0
 10
-570.684814453125
 20
638.6090087890625
 30
30.0
 11
-570.684814453125
 21
635.5065307617188
 31
30.0
  0
LINE
  8
0
 10
-570.684814453125
 20
635.5065307617188
 30
30.0
 11
-570.684814453125
 21
632.404052734375
 31
30.0
  0
LINE
  8
0
 10
-570.684814453125
 20
632.404052734375
 30
30.0
 11
-570.684814453125
 21
629.3016967773438
 31
30.0
  0
LINE
  8
0
 10
-570.684814453125
 20
629.3016967773438
 30
30.0
 11
-550.5985107421875
 21
629.3016967773438
 31
30.0
  0
LINE
  8
0
 10
-550.5985107421875
 20
629.3016967773438
 30
30.0
 11
-550.5985107421875
 21
598.787841796875
 31
30.0
  0
LINE
  8
0
 10
-550.5985107421875
 20
598.787841796875
 30
30.0
 11
-570.684814453125
 21
598.787841796875
 31
30.0
  0
LINE
  8
0
 10
-570.684814453125
 20
598.787841796875
 30
30.0
 11
-570.684814453125
 21
555.5366821289062
 31
30.0
  0
LINE
  8
0
 10
-570.684814453125
 20
555.5366821289062
 30
30.0
 11
-570.684814453125
 21
512.0772094726562
 31
30.0
  0
LINE
  8
0
 10
-570.684814453125
 20
512.0772094726562
 30
30.0
 11
-570.684814453125
 21
468.47882080078125
 31
30.0
  0
LINE
  8
0
 10
-570.684814453125
 20
468.47882080078125
 30
30.0
 11
-570.684814453125
 21
424.8110046386719
 31
30.0
  0
LINE
  8
0
 10
-570.684814453125
 20
424.8110046386719
 30
30.0
 11
-570.684814453125
 21
381.1431884765625
 31
30.0
  0
LINE
  8
0
 10
-570.684814453125
 20
381.1431884765625
 30
30.0
 11
-570.684814453125
 21
337.5447998046875
 31
30.0
  0
LINE
  8
0
 10
-570.684814453125
 20
337.5447998046875
 30
30.0
 11
-570.684814453125
 21
294.0853271484375
 31
30.0
  0
LINE
  8
0
 10
-570.684814453125
 20
294.0853271484375
 30
30.0
 11
-570.684814453125
 21
250.83416748046875
 31
30.0
  0
LINE
  8
0
 10
-570.684814453125
 20
250.83416748046875
 30
30.0
 11
-570.684814453125
 21
207.8607940673828
 31
30.0
  0
LINE
  8
0
 10
-570.684814453125
 20
207.8607940673828
 30
30.0
 11
-570.684814453125
 21
165.23464965820312
 31
30.0
  0
LINE
  8
0
 10
-570.684814453125
 20
165.23464965820312
 30
30.0
 11
-570.684814453125
 21
123.02515411376953
 31
30.0
  0
LINE
  8
0
 10
-570.684814453125
 20
123.02515411376953
 30
30.0
 11
-570.684814453125
 21
81.30175018310547
 31
30.0
  0
LINE
  8
0
 10
-570.684814453125
 20
81.30175018310547
 30
30.0
 11
-550.5985107421875
 21
81.30174255371094
 31
30.0
  0
LINE
  8
0
 10
-550.5985107421875
 20
81.30174255371094
 30
30.0
 11
-550.5985107421875
 21
50.78786849975586
 31
30.0
  0
LINE
  8
0
 10
-550.5985107421875
 20
50.78786849975586
 30
30.0
 11
-570.684814453125
 21
50.787864685058594
 31
30.0
  0
LINE
  8
0
 10
-570.684814453125
 20
50.787864685058594
 30
30.0
 11
-570.684814453125
 21
46.78615951538086
 31
30.0
  0
LINE
  8
0
 10
-570.684814453125
 20
46.78615951538086
 30
30.0
 11
-570.684814453125
 21
42.68029022216797
 31
30.0
  0
LINE
  8
0
 10
-570.684814453125
 20
42.68029022216797
 30
30.0
 11
-570.684814453125
 21
38.504974365234375
 31
30.0
  0
LINE
  8
0
 10
-570.684814453125
 20
38.504974365234375
 30
30.0
 11
-570.684814453125
 21
34.29493713378906
 31
30.0
  0
LINE
  8
0
 10
-570.684814453125
 20
34.29493713378906
 30
30.0
 11
-570.684814453125
 21
30.08489990234375
 31
30.0
  0
LINE
  8
0
 10
-570.684814453125
 20
30.08489990234375
 30
30.0
 11
-570.684814453125
 21
25.909584045410156
 31
30.0
  0
LINE
  8
0
 10
-570.684814453125
 20
25.909584045410156
 30
30.0
 11
-570.684814453125
 21
21.803714752197266
 31
30.0
  0
LINE
  8
0
 10
-570.684814453125
 20
21.803714752197266
 30
30.0
 11
-570.684814453125
 21
17.802011489868164
 31
30.0
  0
LINE
  8
0
 10
-570.684814453125
 20
17.802011489868164
 30
30.0
 11
-570.684814453125
 21
13.939196586608887
 31
30.0
  0
LINE
  8
0
 10
-570.684814453125
 20
13.939196586608887
 30
30.0
 11
-570.684814453125
 21
10.249992370605469
 31
30.0
  0
LINE
  8
0
 10
-570.684814453125
 20
10.249992370605469
 30
30.0
 11
-570.684814453125
 21
6.769122123718262
 31
30.0
  0
LINE
  8
0
 10
-570.684814453125
 20
6.769122123718262
 30
30.0
 11
-570.684814453125
 21
3.531303644180298
 31
30.0
  0
LINE
  8
0
 10
-570.684814453125
 20
3.531303644180298
 30
30.0
 11
-570.664306640625
 21
3.169743299484253
 31
30.0
  0
LINE
  8
0
 10
-570.664306640625
 20
3.169743299484253
 30
30.0
 11
-570.603759765625
 21
2.829803466796875
 31
30.0
  0
LINE
  8
0
 10
-570.603759765625
 20
2.829803466796875
 30
30.0
 11
-570.505126953125
 21
2.5133559703826904
 31
30.0
  0
LINE
  8
0
 10
-570.505126953125
 20
2.5133559703826904
 30
30.0
 11
-570.3699340820312
 21
2.2222723960876465
 31
30.0
  0
LINE
  8
0
 10
-570.3699340820312
 20
2.2222723960876465
 30
30.0
 11
-570.2000732421875
 21
1.9584243297576904
 31
30.0
  0
LINE
  8
0
 10
-570.2000732421875
 20
1.9584243297576904
 30
30.0
 11
-569.9971923828125
 21
1.723683476448059
 31
30.0
  0
LINE
  8
0
 10
-569.9971923828125
 20
1.723683476448059
 30
30.0
 11
-569.7630615234375
 21
1.5199215412139893
 31
30.0
  0
LINE
  8
0
 10
-569.7630615234375
 20
1.5199215412139893
 30
30.0
 11
-569.4994506835938
 21
1.3490102291107178
 31
30.0
  0
LINE
  8
0
 10
-569.4994506835938
 20
1.3490102291107178
 30
30.0
 11
-569.2081298828125
 21
1.2128210067749023
 31
30.0
  0
LINE
  8
0
 10
-569.2081298828125
 20
1.2128210067749023
 30
30.0
 11
-568.8907470703125
 21
1.1132256984710693
 31
30.0
  0
LINE
  8
0
 10
-568.8907470703125
 20
1.1132256984710693
 30
30.0
 11
-568.549072265625
 21
1.0520960092544556
 31
30.0
  0
LINE
  8
0
 10
-568.549072265625
 20
1.0520960092544556
 30
30.0
 11
-568.184814453125
 21
1.0313036441802979
 31
30.0
  0
LINE
  8
0
 10
-568.184814453125
 20
1.0313036441802979
 30
30.0
 11
-545.4507446289062
 21
1.0313036441802979
 31
30.0
  0
LINE
  8
0
 10
-545.4507446289062
 20
1.0313036441802979
 30
30.0
 11
-522.7427368164062
 21
1.0313036441802979
 31
30.0
  0
LINE
  8
0
 10
-522.7427368164062
 20
1.0313036441802979
 30
30.0
 11
-500.0520324707031
 21
1.0313036441802979
 31
30.0
  0
LINE
  8
0
 10
-500.0520324707031
 20
1.0313036441802979
 30
30.0
 11
-477.3700256347656
 21
1.0313036441802979
 31
30.0
  0
LINE
  8
0
 10
-477.3700256347656
 20
1.0313036441802979
 30
30.0
 11
-454.6880187988281
 21
1.0313036441802979
 31
30.0
  0
LINE
  8
0
 10
-454.6880187988281
 20
1.0313036441802979
 30
30.0
 11
-431.9973449707031
 21
1.0313036441802979
 31
30.0
  0
LINE
  8
0
 10
-431.9973449707031
 20
1.0313036441802979
 30
30.0
 11
-409.2892761230469
 21
1.0313036441802979
 31
30.0
  0
LINE
  8
0
 10
-409.2892761230469
 20
1.0313036441802979
 30
30.0
 11
-386.5552062988281
 21
1.0313036441802979
 31
30.0
  0
LINE
  8
0
 10
-386.5552062988281
 20
1.0313036441802979
 30
30.0
 11
-363.786376953125
 21
1.0313036441802979
 31
30.0
  0
LINE
  8
0
 10
-363.786376953125
 20
1.0313036441802979
 30
30.0
 11
-340.97418212890625
 21
1.0313036441802979
 31
30.0
  0
LINE
  8
0
 10
-340.97418212890625
 20
1.0313036441802979
 30
30.0
 11
-318.1098937988281
 21
1.0313036441802979
 31
30.0
  0
LINE
  8
0
 10
-318.1098937988281
 20
1.0313036441802979
 30
30.0
 11
-295.1848449707031
 21
1.0313036441802979
 31
30.0
  0
LINE
  8
0
 10
-295.1848449707031
 20
1.0313036441802979
 30
30.0
 11
-294.81610107421875
 21
1.0524802207946777
 31
30.0
  0
LINE
  8
0
 10
-294.81610107421875
 20
1.0524802207946777
 30
30.0
 11
-294.4714660644531
 21
1.1146225929260254
 31
30.0
  0
LINE
  8
0
 10
-294.4714660644531
 20
1.1146225929260254
 30
30.0
 11
-294.1524658203125
 21
1.2156494855880737
 31
30.0
  0
LINE
  8
0
 10
-294.1524658203125
 20
1.2156494855880737
 30
30.0
 11
-293.860595703125
 21
1.3534797430038452
 31
30.0
  0
LINE
  8
0
 10
-293.860595703125
 20
1.3534797430038452
 30
30.0
 11
-293.597412109375
 21
1.5260322093963623
 31
30.0
  0
LINE
  8
0
 10
-293.597412109375
 20
1.5260322093963623
 30
30.0
 11
-293.3643798828125
 21
1.731225848197937
 31
30.0
  0
LINE
  8
0
 10
-293.3643798828125
 20
1.731225848197937
 30
30.0
 11
-293.1630859375
 21
1.9669792652130127
 31
30.0
  0
LINE
  8
0
 10
-293.1630859375
 20
1.9669792652130127
 30
30.0
 11
-292.99493408203125
 21
2.2312114238739014
 31
30.0
  0
LINE
  8
0
 10
-292.99493408203125
 20
2.2312114238739014
 30
30.0
 11
-292.861572265625
 21
2.521841049194336
 31
30.0
  0
LINE
  8
0
 10
-292.861572265625
 20
2.521841049194336
 30
30.0
 11
-292.764404296875
 21
2.836787223815918
 31
30.0
  0
LINE
  8
0
 10
-292.764404296875
 20
2.836787223815918
 30
30.0
 11
-292.7049865722656
 21
3.1739683151245117
 31
30.0
  0
LINE
  8
0
 10
-292.7049865722656
 20
3.1739683151245117
 30
30.0
 11
-292.6848449707031
 21
3.531303644180298
 31
30.0
  0
LINE
  8
0
 10
-292.6848449707031
 20
3.531303644180298
 30
30.0
 11
-292.6848449707031
 21
58.96554183959961
 31
30.0
  0
LINE
  8
0
 10
-292.6848449707031
 20
58.96554183959961
 30
30.0
 11
-292.6848449707031
 21
114.70126342773438
 31
30.0
  0
LINE
  8
0
 10
-292.6848449707031
 20
114.70126342773438
 30
30.0
 11
-292.6848449707031
 21
170.6379852294922
 31
30.0
  0
LINE
  8
0
 10
-292.6848449707031
 20
170.6379852294922
 30
30.0
 11
-292.6848449707031
 21
226.67518615722656
 31
30.0
  0
LINE
  8
0
 10
-292.6848449707031
 20
226.67518615722656
 30
30.0
 11
-292.6848449707031
 21
282.71240234375
 31
30.0
  0
LINE
  8
0
 10
-292.6848449707031
 20
282.71240234375
 30
30.0
 11
-292.6848449707031
 21
338.64910888671875
 31
30.0
  0
LINE
  8
0
 10
-292.6848449707031
 20
338.64910888671875
 30
30.0
 11
-292.6848449707031
 21
394.38482666015625
 31
30.0
  0
LINE
  8
0
 10
-292.6848449707031
 20
394.38482666015625
 30
30.0
 11
-292.6848449707031
 21
449.8190612792969
 31
30.0
  0
LINE
  8
0
 10
-292.6848449707031
 20
449.8190612792969
 30
30.0
 11
-292.6848449707031
 21
504.851318359375
 31
30.0
  0
LINE
  8
0
 10
-292.6848449707031
 20
504.851318359375
 30
30.0
 11
-292.6848449707031
 21
559.381103515625
 31
30.0
  0
LINE
  8
0
 10
-292.6848449707031
 20
559.381103515625
 30
30.0
 11
-292.6848449707031
 21
613.3079223632812
 31
30.0
  0
LINE
  8
0
 10
-292.6848449707031
 20
613.3079223632812
 30
30.0
 11
-292.6848449707031
 21
666.5313110351562
 31
30.0
  0
LINE
  8
0
 10
-292.6848449707031
 20
666.5313110351562
 30
30.0
 11
-292.7054748535156
 21
666.9010009765625
 31
30.0
  0
LINE
  8
0
 10
-292.7054748535156
 20
666.9010009765625
 30
30.0
 11
-292.76617431640625
 21
667.2462158203125
 31
30.0
  0
LINE
  8
0
 10
-292.76617431640625
 20
667.2462158203125
 30
30.0
 11
-292.86517333984375
 21
667.5655517578125
 31
30.0
  0
LINE
  8
0
 10
-292.86517333984375
 20
667.5655517578125
 30
30.0
 11
-293.0007019042969
 21
667.8574829101562
 31
30.0
  0
LINE
  8
0
 10
-293.0007019042969
 20
667.8574829101562
 30
30.0
 11
-293.17095947265625
 21
668.12060546875
 31
30.0
  0
LINE
  8
0
 10
-293.17095947265625
 20
668.12060546875
 30
30.0
 11
-293.3741149902344
 21
668.3533935546875
 31
30.0
  0
LINE
  8
0
 10
-293.3741149902344
 20
668.3533935546875
 30
30.0
 11
-293.60845947265625
 21
668.5543823242188
 31
30.0
  0
LINE
  8
0
 10
-293.60845947265625
 20
668.5543823242188
 30
30.0
 11
-293.87213134765625
 21
668.72216796875
 31
30.0
  0
LINE
  8
0
 10
-293.87213134765625
 20
668.72216796875
 30
30.0
 11
-294.16339111328125
 21
668.855224609375
 31
30.0
  0
LINE
  8
0
 10
-294.16339111328125
 20
668.855224609375
 30
30.0
 11
-294.48046875
 21
668.9520874023438
 31
30.0
  0
LINE
  8
0
 10
-294.48046875
 20
668.9520874023438
 30
30.0
 11
-294.821533203125
 21
669.0112915039062
 31
30.0
  0
LINE
  8
0
 10
-294.821533203125
 20
669.0112915039062
 30
30.0
 11
-295.1848449707031
 21
669.0313110351562
 31
30.0
  0
LINE
  8
0
 10
-295.1848449707031
 20
669.0313110351562
 30
30.0
 11
-318.1098937988281
 21
669.0313110351562
 31
30.0
  0
LINE
  8
0
 10
-318.1098937988281
 20
669.0313110351562
 30
30.0
 11
-340.97418212890625
 21
669.0313110351562
 31
30.0
  0
LINE
  8
0
 10
-340.97418212890625
 20
669.0313110351562
 30
30.0
 11
-363.7864074707031
 21
669.0313110351562
 31
30.0
  0
LINE
  8
0
 10
-363.7864074707031
 20
669.0313110351562
 30
30.0
 11
-386.5552062988281
 21
669.0313110351562
 31
30.0
  0
LINE
  8
0
 10
-386.5552062988281
 20
669.0313110351562
 30
30.0
 11
-409.289306640625
 21
669.0313110351562
 31
30.0
  0
LINE
  8
0
 10
-409.289306640625
 20
669.0313110351562
 30
30.0
 11
-431.9973449707031
 21
669.0313110351562
 31
30.0
  0
LINE
  8
0
 10
-431.9973449707031
 20
669.0313110351562
 30
30.0
 11
-454.6880187988281
 21
669.0313110351562
 31
30.0
  0
LINE
  8
0
 10
-454.6880187988281
 20
669.0313110351562
 30
30.0
 11
-477.3700256347656
 21
669.0313110351562
 31
30.0
  0
LINE
  8
0
 10
-477.3700256347656
 20
669.0313110351562
 30
30.0
 11
-500.0520324707031
 21
669.0313110351562
 31
30.0
  0
LINE
  8
0
 10
-500.0520324707031
 20
669.0313110351562
 30
30.0
 11
-522.74267578125
 21
669.0313110351562
 31
30.0
  0
LINE
  8
0
 10
-522.74267578125
 20
669.0313110351562
 30
30.0
 11
-545.4507446289062
 21
669.0313110351562
 31
30.0
  0
LINE
  8
0
 10
-568.184814453125
 20
669.0313110351562
 30
30.0
 11
-545.4507446289062
 21
669.0313110351562
 31
30.0
  0
LINE
  8
0
 10
-542.681396484375
 20
614.0964965820312
 30
30.0
 11
-542.66552734375
 21
614.3333740234375
 31
30.0
  0
LINE
  8
0
 10
-542.66552734375
 20
614.3333740234375
 30
30.0
 11
-542.6193237304688
 21
614.5607299804688
 31
30.0
  0
LINE
  8
0
 10
-542.6193237304688
 20
614.5607299804688
 30
30.0
 11
-542.5447998046875
 21
614.7764282226562
 31
30.0
  0
LINE
  8
0
 10
-542.5447998046875
 20
614.7764282226562
 30
30.0
 11
-542.4440307617188
 21
614.9783325195312
 31
30.0
  0
LINE
  8
0
 10
-542.4440307617188
 20
614.9783325195312
 30
30.0
 11
-542.319091796875
 21
615.1644287109375
 31
30.0
  0
LINE
  8
0
 10
-542.319091796875
 20
615.1644287109375
 30
30.0
 11
-542.1720581054688
 21
615.33251953125
 31
30.0
  0
LINE
  8
0
 10
-542.1720581054688
 20
615.33251953125
 30
30.0
 11
-542.0048828125
 21
615.4805908203125
 31
30.0
  0
LINE
  8
0
 10
-542.0048828125
 20
615.4805908203125
 30
30.0
 11
-541.8197021484375
 21
615.6065063476562
 31
30.0
  0
LINE
  8
0
 10
-541.8197021484375
 20
615.6065063476562
 30
30.0
 11
-541.6185302734375
 21
615.7081298828125
 31
30.0
  0
LINE
  8
0
 10
-541.6185302734375
 20
615.7081298828125
 30
30.0
 11
-541.4035034179688
 21
615.7833862304688
 31
30.0
  0
LINE
  8
0
 10
-541.4035034179688
 20
615.7833862304688
 30
30.0
 11
-541.176513671875
 21
615.8302001953125
 31
30.0
  0
LINE
  8
0
 10
-541.176513671875
 20
615.8302001953125
 30
30.0
 11
-540.9397583007812
 21
615.8464965820312
 31
30.0
  0
LINE
  8
0
 10
-540.9397583007812
 20
615.8464965820312
 30
30.0
 11
-540.702392578125
 21
615.8307495117188
 31
30.0
  0
LINE
  8
0
 10
-540.702392578125
 20
615.8307495117188
 30
30.0
 11
-540.4746704101562
 21
615.7843627929688
 31
30.0
  0
LINE
  8
0
 10
-540.4746704101562
 20
615.7843627929688
 30
30.0
 11
-540.2587280273438
 21
615.7094116210938
 31
30.0
  0
LINE
  8
0
 10
-540.2587280273438
 20
615.7094116210938
 30
30.0
 11
-540.056640625
 21
615.6080322265625
 31
30.0
  0
LINE
  8
0
 10
-540.056640625
 20
615.6080322265625
 30
30.0
 11
-539.8705444335938
 21
615.4822998046875
 31
30.0
  0
LINE
  8
0
 10
-539.8705444335938
 20
615.4822998046875
 30
30.0
 11
-539.7024536132812
 21
615.3342895507812
 31
30.0
  0
LINE
  8
0
 10
-539.7024536132812
 20
615.3342895507812
 30
30.0
 11
-539.5545043945312
 21
615.1661376953125
 31
30.0
  0
LINE
  8
0
 10
-539.5545043945312
 20
615.1661376953125
 30
30.0
 11
-539.4287719726562
 21
614.9799194335938
 31
30.0
  0
LINE
  8
0
 10
-539.4287719726562
 20
614.9799194335938
 30
30.0
 11
-539.3273315429688
 21
614.7777709960938
 31
30.0
  0
LINE
  8
0
 10
-539.3273315429688
 20
614.7777709960938
 30
30.0
 11
-539.2523193359375
 21
614.561767578125
 31
30.0
  0
LINE
  8
0
 10
-539.2523193359375
 20
614.561767578125
 30
30.0
 11
-539.205810546875
 21
614.333984375
 31
30.0
  0
LINE
  8
0
 10
-539.205810546875
 20
614.333984375
 30
30.0
 11
-539.1898193359375
 21
614.0964965820312
 31
30.0
  0
LINE
  8
0
 10
-539.1898193359375
 20
614.0964965820312
 30
30.0
 11
-539.205810546875
 21
613.8590698242188
 31
30.0
  0
LINE
  8
0
 10
-539.205810546875
 20
613.8590698242188
 30
30.0
 11
-539.2523193359375
 21
613.6312866210938
 31
30.0
  0
LINE
  8
0
 10
-539.2523193359375
 20
613.6312866210938
 30
30.0
 11
-539.327392578125
 21
613.415283203125
 31
30.0
  0
LINE
  8
0
 10
-539.327392578125
 20
613.415283203125
 30
30.0
 11
-539.4287719726562
 21
613.213134765625
 31
30.0
  0
LINE
  8
0
 10
-539.4287719726562
 20
613.213134765625
 30
30.0
 11
-539.5545043945312
 21
613.0269165039062
 31
30.0
  0
LINE
  8
0
 10
-539.5545043945312
 20
613.0269165039062
 30
30.0
 11
-539.7024536132812
 21
612.8587646484375
 31
30.0
  0
LINE
  8
0
 10
-539.7024536132812
 20
612.8587646484375
 30
30.0
 11
-539.8705444335938
 21
612.7107543945312
 31
30.0
  0
LINE
  8
0
 10
-539.8705444335938
 20
612.7107543945312
 30
30.0
 11
-540.056640625
 21
612.5850219726562
 31
30.0
  0
LINE
  8
0
 10
-540.056640625
 20
612.5850219726562
 30
30.0
 11
-540.2587280273438
 21
612.483642578125
 31
30.0
  0
LINE
  8
0
 10
-540.2587280273438
 20
612.483642578125
 30
30.0
 11
-540.4746704101562
 21
612.40869140625
 31
30.0
  0
LINE
  8
0
 10
-540.4746704101562
 20
612.40869140625
 30
30.0
 11
-540.702392578125
 21
612.3623046875
 31
30.0
  0
LINE
  8
0
 10
-540.702392578125
 20
612.3623046875
 30
30.0
 11
-540.9397583007812
 21
612.3464965820312
 31
30.0
  0
LINE
  8
0
 10
-540.9397583007812
 20
612.3464965820312
 30
30.0
 11
-541.176513671875
 21
612.36279296875
 31
30.0
  0
LINE
  8
0
 10
-541.176513671875
 20
612.36279296875
 30
30.0
 11
-541.4034423828125
 21
612.4096069335938
 31
30.0
  0
LINE
  8
0
 10
-541.4034423828125
 20
612.4096069335938
 30
30.0
 11
-541.6185302734375
 21
612.48486328125
 31
30.0
  0
LINE
  8
0
 10
-541.6185302734375
 20
612.48486328125
 30
30.0
 11
-541.8197021484375
 21
612.5864868164062
 31
30.0
  0
LINE
  8
0
 10
-541.8197021484375
 20
612.5864868164062
 30
30.0
 11
-542.0048828125
 21
612.71240234375
 31
30.0
  0
LINE
  8
0
 10
-542.0048828125
 20
612.71240234375
 30
30.0
 11
-542.1720581054688
 21
612.8604736328125
 31
30.0
  0
LINE
  8
0
 10
-542.1720581054688
 20
612.8604736328125
 30
30.0
 11
-542.319091796875
 21
613.028564453125
 31
30.0
  0
LINE
  8
0
 10
-542.319091796875
 20
613.028564453125
 30
30.0
 11
-542.4440307617188
 21
613.2146606445312
 31
30.0
  0
LINE
  8
0
 10
-542.4440307617188
 20
613.2146606445312
 30
30.0
 11
-542.5447998046875
 21
613.4165649414062
 31
30.0
  0
LINE
  8
0
 10
-542.5447998046875
 20
613.4165649414062
 30
30.0
 11
-542.6193237304688
 21
613.6322631835938
 31
30.0
  0
LINE
  8
0
 10
-542.6193237304688
 20
613.6322631835938
 30
30.0
 11
-542.66552734375
 21
613.859619140625
 31
30.0
  0
LINE
  8
0
 10
-542.681396484375
 20
614.0964965820312
 30
30.0
 11
-542.66552734375
 21
613.859619140625
 31
30.0
  0
LINE
  8
0
 10
-525.989990234375
 20
614.0964965820312
 30
30.0
 11
-525.97412109375
 21
614.3333740234375
 31
30.0
  0
LINE
  8
0
 10
-525.97412109375
 20
614.3333740234375
 30
30.0
 11
-525.9279174804688
 21
614.5607299804688
 31
30.0
  0
LINE
  8
0
 10
-525.9279174804688
 20
614.5607299804688
 30
30.0
 11
-525.8533935546875
 21
614.7764282226562
 31
30.0
  0
LINE
  8
0
 10
-525.8533935546875
 20
614.7764282226562
 30
30.0
 11
-525.7526245117188
 21
614.9783325195312
 31
30.0
  0
LINE
  8
0
 10
-525.7526245117188
 20
614.9783325195312
 30
30.0
 11
-525.627685546875
 21
615.1644287109375
 31
30.0
  0
LINE
  8
0
 10
-525.627685546875
 20
615.1644287109375
 30
30.0
 11
-525.4806518554688
 21
615.33251953125
 31
30.0
  0
LINE
  8
0
 10
-525.4806518554688
 20
615.33251953125
 30
30.0
 11
-525.3134765625
 21
615.4805908203125
 31
30.0
  0
LINE
  8
0
 10
-525.3134765625
 20
615.4805908203125
 30
30.0
 11
-525.1282958984375
 21
615.6065063476562
 31
30.0
  0
LINE
  8
0
 10
-525.1282958984375
 20
615.6065063476562
 30
30.0
 11
-524.9271240234375
 21
615.7081298828125
 31
30.0
  0
LINE
  8
0
 10
-524.9271240234375
 20
615.7081298828125
 30
30.0
 11
-524.7120971679688
 21
615.7833862304688
 31
30.0
  0
LINE
  8
0
 10
-524.7120971679688
 20
615.7833862304688
 30
30.0
 11
-524.485107421875
 21
615.8302001953125
 31
30.0
  0
LINE
  8
0
 10
-524.485107421875
 20
615.8302001953125
 30
30.0
 11
-524.2483520507812
 21
615.8464965820312
 31
30.0
  0
LINE
  8
0
 10
-524.2483520507812
 20
615.8464965820312
 30
30.0
 11
-524.010986328125
 21
615.8307495117188
 31
30.0
  0
LINE
  8
0
 10
-524.010986328125
 20
615.8307495117188
 30
30.0
 11
-523.7832641601562
 21
615.7843627929688
 31
30.0
  0
LINE
  8
0
 10
-523.7832641601562
 20
615.7843627929688
 30
30.0
 11
-523.5673217773438
 21
615.7094116210938
 31
30.0
  0
LINE
  8
0
 10
-523.5673217773438
 20
615.7094116210938
 30
30.0
 11
-523.365234375
 21
615.6080322265625
 31
30.0
  0
LINE
  8
0
 10
-523.365234375
 20
615.6080322265625
 30
30.0
 11
-523.1791381835938
 21
615.4822998046875
 31
30.0
  0
LINE
  8
0
 10
-523.1791381835938
 20
615.4822998046875
 30
30.0
 11
-523.0110473632812
 21
615.3342895507812
 31
30.0
  0
LINE
  8
0
 10
-523.0110473632812
 20
615.3342895507812
 30
30.0
 11
-522.8630981445312
 21
615.1661376953125
 31
30.0
  0
LINE
  8
0
 10
-522.8630981445312
 20
615.1661376953125
 30
30.0
 11
-522.7373657226562
 21
614.9799194335938
 31
30.0
  0
LINE
  8
0
 10
-522.7373657226562
 20
614.9799194335938
 30
30.0
 11
-522.6359252929688
 21
614.7777709960938
 31
30.0
  0
LINE
  8
0
 10
-522.6359252929688
 20
614.7777709960938
 30
30.0
 11
-522.5609130859375
 21
614.561767578125
 31
30.0
  0
LINE
  8
0
 10
-522.5609130859375
 20
614.561767578125
 30
30.0
 11
-522.514404296875
 21
614.333984375
 31
30.0
  0
LINE
  8
0
 10
-522.514404296875
 20
614.333984375
 30
30.0
 11
-522.4984130859375
 21
614.0964965820312
 31
30.0
  0
LINE
  8
0
 10
-522.4984130859375
 20
614.0964965820312
 30
30.0
 11
-522.514404296875
 21
613.8590698242188
 31
30.0
  0
LINE
  8
0
 10
-522.514404296875
 20
613.8590698242188
 30
30.0
 11
-522.5609130859375
 21
613.6312866210938
 31
30.0
  0
LINE
  8
0
 10
-522.5609130859375
 20
613.6312866210938
 30
30.0
 11
-522.635986328125
 21
613.415283203125
 31
30.0
  0
LINE
  8
0
 10
-522.635986328125
 20
613.415283203125
 30
30.0
 11
-522.7373657226562
 21
613.213134765625
 31
30.0
  0
LINE
  8
0
 10
-522.7373657226562
 20
613.213134765625
 30
30.0
 11
-522.8630981445312
 21
613.0269165039062
 31
30.0
  0
LINE
  8
0
 10
-522.8630981445312
 20
613.0269165039062
 30
30.0
 11
-523.0110473632812
 21
612.8587646484375
 31
30.0
  0
LINE
  8
0
 10
-523.0110473632812
 20
612.8587646484375
 30
30.0
 11
-523.1791381835938
 21
612.7107543945312
 31
30.0
  0
LINE
  8
0
 10
-523.1791381835938
 20
612.7107543945312
 30
30.0
 11
-523.365234375
 21
612.5850219726562
 31
30.0
  0
LINE
  8
0
 10
-523.365234375
 20
612.5850219726562
 30
30.0
 11
-523.5673217773438
 21
612.483642578125
 31
30.0
  0
LINE
  8
0
 10
-523.5673217773438
 20
612.483642578125
 30
30.0
 11
-523.7832641601562
 21
612.40869140625
 31
30.0
  0
LINE
  8
0
 10
-523.7832641601562
 20
612.40869140625
 30
30.0
 11
-524.010986328125
 21
612.3623046875
 31
30.0
  0
LINE
  8
0
 10
-524.010986328125
 20
612.3623046875
 30
30.0
 11
-524.2483520507812
 21
612.3464965820312
 31
30.0
  0
LINE
  8
0
 10
-524.2483520507812
 20
612.3464965820312
 30
30.0
 11
-524.485107421875
 21
612.36279296875
 31
30.0
  0
LINE
  8
0
 10
-524.485107421875
 20
612.36279296875
 30
30.0
 11
-524.7120361328125
 21
612.4096069335938
 31
30.0
  0
LINE
  8
0
 10
-524.7120361328125
 20
612.4096069335938
 30
30.0
 11
-524.9271240234375
 21
612.48486328125
 31
30.0
  0
LINE
  8
0
 10
-524.9271240234375
 20
612.48486328125
 30
30.0
 11
-525.1282958984375
 21
612.5864868164062
 31
30.0
  0
LINE
  8
0
 10
-525.1282958984375
 20
612.5864868164062
 30
30.0
 11
-525.3134765625
 21
612.71240234375
 31
30.0
  0
LINE
  8
0
 10
-525.3134765625
 20
612.71240234375
 30
30.0
 11
-525.4806518554688
 21
612.8604736328125
 31
30.0
  0
LINE
  8
0
 10
-525.4806518554688
 20
612.8604736328125
 30
30.0
 11
-525.627685546875
 21
613.028564453125
 31
30.0
  0
LINE
  8
0
 10
-525.627685546875
 20
613.028564453125
 30
30.0
 11
-525.7526245117188
 21
613.2146606445312
 31
30.0
  0
LINE
  8
0
 10
-525.7526245117188
 20
613.2146606445312
 30
30.0
 11
-525.8533935546875
 21
613.4165649414062
 31
30.0
  0
LINE
  8
0
 10
-525.8533935546875
 20
613.4165649414062
 30
30.0
 11
-525.9279174804688
 21
613.6322631835938
 31
30.0
  0
LINE
  8
0
 10
-525.9279174804688
 20
613.6322631835938
 30
30.0
 11
-525.97412109375
 21
613.859619140625
 31
30.0
  0
LINE
  8
0
 10
-525.989990234375
 20
614.0964965820312
 30
30.0
 11
-525.97412109375
 21
613.859619140625
 31
30.0
  0
LINE
  8
0
 10
-542.681396484375
 20
66.09656524658203
 30
30.0
 11
-542.66552734375
 21
66.33346557617188
 31
30.0
  0
LINE
  8
0
 10
-542.66552734375
 20
66.33346557617188
 30
30.0
 11
-542.6193237304688
 21
66.56080627441406
 31
30.0
  0
LINE
  8
0
 10
-542.6193237304688
 20
66.56080627441406
 30
30.0
 11
-542.5447998046875
 21
66.7764892578125
 31
30.0
  0
LINE
  8
0
 10
-542.5447998046875
 20
66.7764892578125
 30
30.0
 11
-542.4440307617188
 21
66.9784164428711
 31
30.0
  0
LINE
  8
0
 10
-542.4440307617188
 20
66.9784164428711
 30
30.0
 11
-542.319091796875
 21
67.16448974609375
 31
30.0
  0
LINE
  8
0
 10
-542.319091796875
 20
67.16448974609375
 30
30.0
 11
-542.1720581054688
 21
67.33260345458984
 31
30.0
  0
LINE
  8
0
 10
-542.1720581054688
 20
67.33260345458984
 30
30.0
 11
-542.0048828125
 21
67.48065948486328
 31
30.0
  0
LINE
  8
0
 10
-542.0048828125
 20
67.48065948486328
 30
30.0
 11
-541.8197021484375
 21
67.60655975341797
 31
30.0
  0
LINE
  8
0
 10
-541.8197021484375
 20
67.60655975341797
 30
30.0
 11
-541.6185302734375
 21
67.70819854736328
 31
30.0
  0
LINE
  8
0
 10
-541.6185302734375
 20
67.70819854736328
 30
30.0
 11
-541.4035034179688
 21
67.78347778320312
 31
30.0
  0
LINE
  8
0
 10
-541.4035034179688
 20
67.78347778320312
 30
30.0
 11
-541.176513671875
 21
67.8302993774414
 31
30.0
  0
LINE
  8
0
 10
-541.176513671875
 20
67.8302993774414
 30
30.0
 11
-540.9397583007812
 21
67.84656524658203
 31
30.0
  0
LINE
  8
0
 10
-540.9397583007812
 20
67.84656524658203
 30
30.0
 11
-540.702392578125
 21
67.83082580566406
 31
30.0
  0
LINE
  8
0
 10
-540.702392578125
 20
67.83082580566406
 30
30.0
 11
-540.4746704101562
 21
67.78443145751953
 31
30.0
  0
LINE
  8
0
 10
-540.4746704101562
 20
67.78443145751953
 30
30.0
 11
-540.2587280273438
 21
67.70948791503906
 31
30.0
  0
LINE
  8
0
 10
-540.2587280273438
 20
67.70948791503906
 30
30.0
 11
-540.056640625
 21
67.60808563232422
 31
30.0
  0
LINE
  8
0
 10
-540.056640625
 20
67.60808563232422
 30
30.0
 11
-539.8705444335938
 21
67.48233032226562
 31
30.0
  0
LINE
  8
0
 10
-539.8705444335938
 20
67.48233032226562
 30
30.0
 11
-539.7024536132812
 21
67.33432006835938
 31
30.0
  0
LINE
  8
0
 10
-539.7024536132812
 20
67.33432006835938
 30
30.0
 11
-539.5545043945312
 21
67.1661605834961
 31
30.0
  0
LINE
  8
0
 10
-539.5545043945312
 20
67.1661605834961
 30
30.0
 11
-539.4287719726562
 21
66.97994232177734
 31
30.0
  0
LINE
  8
0
 10
-539.4287719726562
 20
66.97994232177734
 30
30.0
 11
-539.3273315429688
 21
66.77777099609375
 31
30.0
  0
LINE
  8
0
 10
-539.3273315429688
 20
66.77777099609375
 30
30.0
 11
-539.2523193359375
 21
66.56175231933594
 31
30.0
  0
LINE
  8
0
 10
-539.2523193359375
 20
66.56175231933594
 30
30.0
 11
-539.205810546875
 21
66.33397674560547
 31
30.0
  0
LINE
  8
0
 10
-539.205810546875
 20
66.33397674560547
 30
30.0
 11
-539.1898193359375
 21
66.09656524658203
 31
30.0
  0
LINE
  8
0
 10
-539.1898193359375
 20
66.09656524658203
 30
30.0
 11
-539.205810546875
 21
65.85913848876953
 31
30.0
  0
LINE
  8
0
 10
-539.205810546875
 20
65.85913848876953
 30
30.0
 11
-539.2523193359375
 21
65.63136291503906
 31
30.0
  0
LINE
  8
0
 10
-539.2523193359375
 20
65.63136291503906
 30
30.0
 11
-539.327392578125
 21
65.41534423828125
 31
30.0
  0
LINE
  8
0
 10
-539.327392578125
 20
65.41534423828125
 30
30.0
 11
-539.4287719726562
 21
65.21318054199219
 31
30.0
  0
LINE
  8
0
 10
-539.4287719726562
 20
65.21318054199219
 30
30.0
 11
-539.5545043945312
 21
65.02696990966797
 31
30.0
  0
LINE
  8
0
 10
-539.5545043945312
 20
65.02696990966797
 30
30.0
 11
-539.7024536132812
 21
64.85881042480469
 31
30.0
  0
LINE
  8
0
 10
-539.7024536132812
 20
64.85881042480469
 30
30.0
 11
-539.8705444335938
 21
64.71080017089844
 31
30.0
  0
LINE
  8
0
 10
-539.8705444335938
 20
64.71080017089844
 30
30.0
 11
-540.056640625
 21
64.58504486083984
 31
30.0
  0
LINE
  8
0
 10
-540.056640625
 20
64.58504486083984
 30
30.0
 11
-540.2587280273438
 21
64.48365020751953
 31
30.0
  0
LINE
  8
0
 10
-540.2587280273438
 20
64.48365020751953
 30
30.0
 11
-540.4746704101562
 21
64.40869903564453
 31
30.0
  0
LINE
  8
0
 10
-540.4746704101562
 20
64.40869903564453
 30
30.0
 11
-540.702392578125
 21
64.36231231689453
 31
30.0
  0
LINE
  8
0
 10
-540.702392578125
 20
64.36231231689453
 30
30.0
 11
-540.9397583007812
 21
64.34656524658203
 31
30.0
  0
LINE
  8
0
 10
-540.9397583007812
 20
64.34656524658203
 30
30.0
 11
-541.176513671875
 21
64.36283111572266
 31
30.0
  0
LINE
  8
0
 10
-541.176513671875
 20
64.36283111572266
 30
30.0
 11
-541.4034423828125
 21
64.40966033935547
 31
30.0
  0
LINE
  8
0
 10
-541.4034423828125
 20
64.40966033935547
 30
30.0
 11
-541.6185302734375
 21
64.48493957519531
 31
30.0
  0
LINE
  8
0
 10
-541.6185302734375
 20
64.48493957519531
 30
30.0
 11
-541.8197021484375
 21
64.58657836914062
 31
30.0
  0
LINE
  8
0
 10
-541.8197021484375
 20
64.58657836914062
 30
30.0
 11
-542.0048828125
 21
64.71247863769531
 31
30.0
  0
LINE
  8
0
 10
-542.0048828125
 20
64.71247863769531
 30
30.0
 11
-542.1720581054688
 21
64.86053466796875
 31
30.0
  0
LINE
  8
0
 10
-542.1720581054688
 20
64.86053466796875
 30
30.0
 11
-542.319091796875
 21
65.02864837646484
 31
30.0
  0
LINE
  8
0
 10
-542.319091796875
 20
65.02864837646484
 30
30.0
 11
-542.4440307617188
 21
65.21471405029297
 31
30.0
  0
LINE
  8
0
 10
-542.4440307617188
 20
65.21471405029297
 30
30.0
 11
-542.5447998046875
 21
65.41664123535156
 31
30.0
  0
LINE
  8
0
 10
-542.5447998046875
 20
65.41664123535156
 30
30.0
 11
-542.6193237304688
 21
65.63232421875
 31
30.0
  0
LINE
  8
0
 10
-542.6193237304688
 20
65.63232421875
 30
30.0
 11
-542.66552734375
 21
65.85966491699219
 31
30.0
  0
LINE
  8
0
 10
-542.681396484375
 20
66.09656524658203
 30
30.0
 11
-542.66552734375
 21
65.85966491699219
 31
30.0
  0
LINE
  8
0
 10
-525.989990234375
 20
66.09656524658203
 30
30.0
 11
-525.97412109375
 21
66.33346557617188
 31
30.0
  0
LINE
  8
0
 10
-525.97412109375
 20
66.33346557617188
 30
30.0
 11
-525.9279174804688
 21
66.56080627441406
 31
30.0
  0
LINE
  8
0
 10
-525.9279174804688
 20
66.56080627441406
 30
30.0
 11
-525.8533935546875
 21
66.7764892578125
 31
30.0
  0
LINE
  8
0
 10
-525.8533935546875
 20
66.7764892578125
 30
30.0
 11
-525.7526245117188
 21
66.9784164428711
 31
30.0
  0
LINE
  8
0
 10
-525.7526245117188
 20
66.9784164428711
 30
30.0
 11
-525.627685546875
 21
67.16448974609375
 31
30.0
  0
LINE
  8
0
 10
-525.627685546875
 20
67.16448974609375
 30
30.0
 11
-525.4806518554688
 21
67.33260345458984
 31
30.0
  0
LINE
  8
0
 10
-525.4806518554688
 20
67.33260345458984
 30
30.0
 11
-525.3134765625
 21
67.48065948486328
 31
30.0
  0
LINE
  8
0
 10
-525.3134765625
 20
67.48065948486328
 30
30.0
 11
-525.1282958984375
 21
67.60655975341797
 31
30.0
  0
LINE
  8
0
 10
-525.1282958984375
 20
67.60655975341797
 30
30.0
 11
-524.9271240234375
 21
67.70819854736328
 31
30.0
  0
LINE
  8
0
 10
-524.9271240234375
 20
67.70819854736328
 30
30.0
 11
-524.7120971679688
 21
67.78347778320312
 31
30.0
  0
LINE
  8
0
 10
-524.7120971679688
 20
67.78347778320312
 30
30.0
 11
-524.485107421875
 21
67.8302993774414
 31
30.0
  0
LINE
  8
0
 10
-524.485107421875
 20
67.8302993774414
 30
30.0
 11
-524.2483520507812
 21
67.84656524658203
 31
30.0
  0
LINE
  8
0
 10
-524.2483520507812
 20
67.84656524658203
 30
30.0
 11
-524.010986328125
 21
67.83082580566406
 31
30.0
  0
LINE
  8
0
 10
-524.010986328125
 20
67.83082580566406
 30
30.0
 11
-523.7832641601562
 21
67.78443145751953
 31
30.0
  0
LINE
  8
0
 10
-523.7832641601562
 20
67.78443145751953
 30
30.0
 11
-523.5673217773438
 21
67.70948791503906
 31
30.0
  0
LINE
  8
0
 10
-523.5673217773438
 20
67.70948791503906
 30
30.0
 11
-523.365234375
 21
67.60808563232422
 31
30.0
  0
LINE
  8
0
 10
-523.365234375
 20
67.60808563232422
 30
30.0
 11
-523.1791381835938
 21
67.48233032226562
 31
30.0
  0
LINE
  8
0
 10
-523.1791381835938
 20
67.48233032226562
 30
30.0
 11
-523.0110473632812
 21
67.33432006835938
 31
30.0
  0
LINE
  8
0
 10
-523.0110473632812
 20
67.33432006835938
 30
30.0
 11
-522.8630981445312
 21
67.1661605834961
 31
30.0
  0
LINE
  8
0
 10
-522.8630981445312
 20
67.1661605834961
 30
30.0
 11
-522.7373657226562
 21
66.97994232177734
 31
30.0
  0
LINE
  8
0
 10
-522.7373657226562
 20
66.97994232177734
 30
30.0
 11
-522.6359252929688
 21
66.77777099609375
 31
30.0
  0
LINE
  8
0
 10
-522.6359252929688
 20
66.77777099609375
 30
30.0
 11
-522.5609130859375
 21
66.56175231933594
 31
30.0
  0
LINE
  8
0
 10
-522.5609130859375
 20
66.56175231933594
 30
30.0
 11
-522.514404296875
 21
66.33397674560547
 31
30.0
  0
LINE
  8
0
 10
-522.514404296875
 20
66.33397674560547
 30
30.0
 11
-522.4984130859375
 21
66.09656524658203
 31
30.0
  0
LINE
  8
0
 10
-522.4984130859375
 20
66.09656524658203
 30
30.0
 11
-522.514404296875
 21
65.85913848876953
 31
30.0
  0
LINE
  8
0
 10
-522.514404296875
 20
65.85913848876953
 30
30.0
 11
-522.5609130859375
 21
65.63136291503906
 31
30.0
  0
LINE
  8
0
 10
-522.5609130859375
 20
65.63136291503906
 30
30.0
 11
-522.635986328125
 21
65.41534423828125
 31
30.0
  0
LINE
  8
0
 10
-522.635986328125
 20
65.41534423828125
 30
30.0
 11
-522.7373657226562
 21
65.21318054199219
 31
30.0
  0
LINE
  8
0
 10
-522.7373657226562
 20
65.21318054199219
 30
30.0
 11
-522.8630981445312
 21
65.02696990966797
 31
30.0
  0
LINE
  8
0
 10
-522.8630981445312
 20
65.02696990966797
 30
30.0
 11
-523.0110473632812
 21
64.85881042480469
 31
30.0
  0
LINE
  8
0
 10
-523.0110473632812
 20
64.85881042480469
 30
30.0
 11
-523.1791381835938
 21
64.71080017089844
 31
30.0
  0
LINE
  8
0
 10
-523.1791381835938
 20
64.71080017089844
 30
30.0
 11
-523.365234375
 21
64.58504486083984
 31
30.0
  0
LINE
  8
0
 10
-523.365234375
 20
64.58504486083984
 30
30.0
 11
-523.5673217773438
 21
64.48365020751953
 31
30.0
  0
LINE
  8
0
 10
-523.5673217773438
 20
64.48365020751953
 30
30.0
 11
-523.7832641601562
 21
64.40869903564453
 31
30.0
  0
LINE
  8
0
 10
-523.7832641601562
 20
64.40869903564453
 30
30.0
 11
-524.010986328125
 21
64.36231231689453
 31
30.0
  0
LINE
  8
0
 10
-524.010986328125
 20
64.36231231689453
 30
30.0
 11
-524.2483520507812
 21
64.34656524658203
 31
30.0
  0
LINE
  8
0
 10
-524.2483520507812
 20
64.34656524658203
 30
30.0
 11
-524.485107421875
 21
64.36283111572266
 31
30.0
  0
LINE
  8
0
 10
-524.485107421875
 20
64.36283111572266
 30
30.0
 11
-524.7120361328125
 21
64.40966033935547
 31
30.0
  0
LINE
  8
0
 10
-524.7120361328125
 20
64.40966033935547
 30
30.0
 11
-524.9271240234375
 21
64.48493957519531
 31
30.0
  0
LINE
  8
0
 10
-524.9271240234375
 20
64.48493957519531
 30
30.0
 11
-525.1282958984375
 21
64.58657836914062
 31
30.0
  0
LINE
  8
0
 10
-525.1282958984375
 20
64.58657836914062
 30
30.0
 11
-525.3134765625
 21
64.71247863769531
 31
30.0
  0
LINE
  8
0
 10
-525.3134765625
 20
64.71247863769531
 30
30.0
 11
-525.4806518554688
 21
64.86053466796875
 31
30.0
  0
LINE
  8
0
 10
-525.4806518554688
 20
64.86053466796875
 30
30.0
 11
-525.627685546875
 21
65.02864837646484
 31
30.0
  0
LINE
  8
0
 10
-525.627685546875
 20
65.02864837646484
 30
30.0
 11
-525.7526245117188
 21
65.21471405029297
 31
30.0
  0
LINE
  8
0
 10
-525.7526245117188
 20
65.21471405029297
 30
30.0
 11
-525.8533935546875
 21
65.41664123535156
 31
30.0
  0
LINE
  8
0
 10
-525.8533935546875
 20
65.41664123535156
 30
30.0
 11
-525.9279174804688
 21
65.63232421875
 31
30.0
  0
LINE
  8
0
 10
-525.9279174804688
 20
65.63232421875
 30
30.0
 11
-525.97412109375
 21
65.85966491699219
 31
30.0
  0
LINE
  8
0
 10
-525.989990234375
 20
66.09656524658203
 30
30.0
 11
-525.97412109375
 21
65.85966491699219
 31
30.0
  0
LINE
  8
0
 10
-470.5744323730469
 20
518.1388549804688
 30
29.99997901916504
 11
-470.56072998046875
 21
518.3423461914062
 31
29.99997901916504
  0
LINE
  8
0
 10
-470.56072998046875
 20
518.3423461914062
 30
29.99997901916504
 11
-470.52081298828125
 21
518.5375366210938
 31
29.99997901916504
  0
LINE
  8
0
 10
-470.52081298828125
 20
518.5375366210938
 30
29.99997901916504
 11
-470.4565124511719
 21
518.72265625
 31
29.99997901916504
  0
LINE
  8
0
 10
-470.4565124511719
 20
518.72265625
 30
29.99997901916504
 11
-470.36956787109375
 21
518.8958740234375
 31
29.99997901916504
  0
LINE
  8
0
 10
-470.36956787109375
 20
518.8958740234375
 30
29.99997901916504
 11
-470.2618103027344
 21
519.055419921875
 31
29.99997901916504
  0
LINE
  8
0
 10
-470.2618103027344
 20
519.055419921875
 30
29.99997901916504
 11
-470.135009765625
 21
519.199462890625
 31
29.99997901916504
  0
LINE
  8
0
 10
-470.135009765625
 20
519.199462890625
 30
29.99997901916504
 11
-469.9909362792969
 21
519.3262939453125
 31
29.99997901916504
  0
LINE
  8
0
 10
-469.9909362792969
 20
519.3262939453125
 30
29.99997901916504
 11
-469.8313903808594
 21
519.43408203125
 31
29.99997901916504
  0
LINE
  8
0
 10
-469.8313903808594
 20
519.43408203125
 30
29.99997901916504
 11
-469.658203125
 21
519.52099609375
 31
29.99997901916504
  0
LINE
  8
0
 10
-469.658203125
 20
519.52099609375
 30
29.99997901916504
 11
-469.4731140136719
 21
519.5853271484375
 31
29.99997901916504
  0
LINE
  8
0
 10
-469.4731140136719
 20
519.5853271484375
 30
29.99997901916504
 11
-469.2779235839844
 21
519.625244140625
 31
29.99997901916504
  0
LINE
  8
0
 10
-469.2779235839844
 20
519.625244140625
 30
29.99997901916504
 11
-469.0744323730469
 21
519.6388549804688
 31
29.99997901916504
  0
LINE
  8
0
 10
-469.0744323730469
 20
519.6388549804688
 30
29.99997901916504
 11
-468.8709411621094
 21
519.6251831054688
 31
29.99997901916504
  0
LINE
  8
0
 10
-468.8709411621094
 20
519.6251831054688
 30
29.99997901916504
 11
-468.6757507324219
 21
519.5852661132812
 31
29.99997901916504
  0
LINE
  8
0
 10
-468.6757507324219
 20
519.5852661132812
 30
29.99997901916504
 11
-468.49066162109375
 21
519.5209350585938
 31
29.99997901916504
  0
LINE
  8
0
 10
-468.49066162109375
 20
519.5209350585938
 30
29.99997901916504
 11
-468.31744384765625
 21
519.4340209960938
 31
29.99997901916504
  0
LINE
  8
0
 10
-468.31744384765625
 20
519.4340209960938
 30
29.99997901916504
 11
-468.1579284667969
 21
519.3262329101562
 31
29.99997901916504
  0
LINE
  8
0
 10
-468.1579284667969
 20
519.3262329101562
 30
29.99997901916504
 11
-468.01385498046875
 21
519.1994018554688
 31
29.99997901916504
  0
LINE
  8
0
 10
-468.01385498046875
 20
519.1994018554688
 30
29.99997901916504
 11
-467.8870544433594
 21
519.0553588867188
 31
29.99997901916504
  0
LINE
  8
0
 10
-467.8870544433594
 20
519.0553588867188
 30
29.99997901916504
 11
-467.7792663574219
 21
518.8958129882812
 31
29.99997901916504
  0
LINE
  8
0
 10
-467.7792663574219
 20
518.8958129882812
 30
29.99997901916504
 11
-467.69232177734375
 21
518.7225952148438
 31
29.99997901916504
  0
LINE
  8
0
 10
-467.69232177734375
 20
518.7225952148438
 30
29.99997901916504
 11
-467.6280212402344
 21
518.5374755859375
 31
29.99997901916504
  0
LINE
  8
0
 10
-467.6280212402344
 20
518.5374755859375
 30
29.99997901916504
 11
-467.588134765625
 21
518.34228515625
 31
29.99997901916504
  0
LINE
  8
0
 10
-467.588134765625
 20
518.34228515625
 30
29.99997901916504
 11
-467.5744323730469
 21
518.1388549804688
 31
29.99997901916504
  0
LINE
  8
0
 10
-467.5744323730469
 20
518.1388549804688
 30
29.99997901916504
 11
-467.588134765625
 21
517.9353637695312
 31
29.99997901916504
  0
LINE
  8
0
 10
-467.588134765625
 20
517.9353637695312
 30
29.99997901916504
 11
-467.6280212402344
 21
517.7401733398438
 31
29.99997901916504
  0
LINE
  8
0
 10
-467.6280212402344
 20
517.7401733398438
 30
29.99997901916504
 11
-467.69232177734375
 21
517.5550537109375
 31
29.99997901916504
  0
LINE
  8
0
 10
-467.69232177734375
 20
517.5550537109375
 30
29.99997901916504
 11
-467.7792663574219
 21
517.3818359375
 31
29.99997901916504
  0
LINE
  8
0
 10
-467.7792663574219
 20
517.3818359375
 30
29.99997901916504
 11
-467.8870544433594
 21
517.2222900390625
 31
29.99997901916504
  0
LINE
  8
0
 10
-467.8870544433594
 20
517.2222900390625
 30
29.99997901916504
 11
-468.01385498046875
 21
517.0782470703125
 31
29.99997901916504
  0
LINE
  8
0
 10
-468.01385498046875
 20
517.0782470703125
 30
29.99997901916504
 11
-468.1579284667969
 21
516.951416015625
 31
29.99997901916504
  0
LINE
  8
0
 10
-468.1579284667969
 20
516.951416015625
 30
29.99997901916504
 11
-468.31744384765625
 21
516.8436279296875
 31
29.99997901916504
  0
LINE
  8
0
 10
-468.31744384765625
 20
516.8436279296875
 30
29.99997901916504
 11
-468.49066162109375
 21
516.7567138671875
 31
29.99997901916504
  0
LINE
  8
0
 10
-468.49066162109375
 20
516.7567138671875
 30
29.99997901916504
 11
-468.6757507324219
 21
516.6923828125
 31
29.99997901916504
  0
LINE
  8
0
 10
-468.6757507324219
 20
516.6923828125
 30
29.99997901916504
 11
-468.8709411621094
 21
516.6524658203125
 31
29.99997901916504
  0
LINE
  8
0
 10
-468.8709411621094
 20
516.6524658203125
 30
29.99997901916504
 11
-469.0744323730469
 21
516.6388549804688
 31
29.99997901916504
  0
LINE
  8
0
 10
-469.0744323730469
 20
516.6388549804688
 30
29.99997901916504
 11
-469.2779235839844
 21
516.6525268554688
 31
29.99997901916504
  0
LINE
  8
0
 10
-469.2779235839844
 20
516.6525268554688
 30
29.99997901916504
 11
-469.4731140136719
 21
516.6924438476562
 31
29.99997901916504
  0
LINE
  8
0
 10
-469.4731140136719
 20
516.6924438476562
 30
29.99997901916504
 11
-469.658203125
 21
516.7567749023438
 31
29.99997901916504
  0
LINE
  8
0
 10
-469.658203125
 20
516.7567749023438
 30
29.99997901916504
 11
-469.8313903808594
 21
516.8436889648438
 31
29.99997901916504
  0
LINE
  8
0
 10
-469.8313903808594
 20
516.8436889648438
 30
29.99997901916504
 11
-469.9909362792969
 21
516.9514770507812
 31
29.99997901916504
  0
LINE
  8
0
 10
-469.9909362792969
 20
516.9514770507812
 30
29.99997901916504
 11
-470.135009765625
 21
517.0783081054688
 31
29.99997901916504
  0
LINE
  8
0
 10
-470.135009765625
 20
517.0783081054688
 30
29.99997901916504
 11
-470.2618103027344
 21
517.2223510742188
 31
29.99997901916504
  0
LINE
  8
0
 10
-470.2618103027344
 20
517.2223510742188
 30
29.99997901916504
 11
-470.36956787109375
 21
517.3818969726562
 31
29.99997901916504
  0
LINE
  8
0
 10
-470.36956787109375
 20
517.3818969726562
 30
29.99997901916504
 11
-470.4565124511719
 21
517.5551147460938
 31
29.99997901916504
  0
LINE
  8
0
 10
-470.4565124511719
 20
517.5551147460938
 30
29.99997901916504
 11
-470.52081298828125
 21
517.740234375
 31
29.99997901916504
  0
LINE
  8
0
 10
-470.52081298828125
 20
517.740234375
 30
29.99997901916504
 11
-470.56072998046875
 21
517.9354248046875
 31
29.99997901916504
  0
LINE
  8
0
 10
-470.5744323730469
 20
518.1388549804688
 30
29.99997901916504
 11
-470.56072998046875
 21
517.9354248046875
 31
29.99997901916504
  0
LINE
  8
0
 10
-397.78619384765625
 20
518.1253051757812
 30
29.99997901916504
 11
-397.7724914550781
 21
518.3287963867188
 31
29.99997901916504
  0
LINE
  8
0
 10
-397.7724914550781
 20
518.3287963867188
 30
29.99997901916504
 11
-397.73260498046875
 21
518.5239868164062
 31
29.99997901916504
  0
LINE
  8
0
 10
-397.73260498046875
 20
518.5239868164062
 30
29.99997901916504
 11
-397.66827392578125
 21
518.7091064453125
 31
29.99997901916504
  0
LINE
  8
0
 10
-397.66827392578125
 20
518.7091064453125
 30
29.99997901916504
 11
-397.58135986328125
 21
518.88232421875
 31
29.99997901916504
  0
LINE
  8
0
 10
-397.58135986328125
 20
518.88232421875
 30
29.99997901916504
 11
-397.47357177734375
 21
519.0418701171875
 31
29.99997901916504
  0
LINE
  8
0
 10
-397.47357177734375
 20
519.0418701171875
 30
29.99997901916504
 11
-397.3467712402344
 21
519.1859130859375
 31
29.99997901916504
  0
LINE
  8
0
 10
-397.3467712402344
 20
519.1859130859375
 30
29.99997901916504
 11
-397.20269775390625
 21
519.312744140625
 31
29.99997901916504
  0
LINE
  8
0
 10
-397.20269775390625
 20
519.312744140625
 30
29.99997901916504
 11
-397.04315185546875
 21
519.4205322265625
 31
29.99997901916504
  0
LINE
  8
0
 10
-397.04315185546875
 20
519.4205322265625
 30
29.99997901916504
 11
-396.8699645996094
 21
519.5074462890625
 31
29.99997901916504
  0
LINE
  8
0
 10
-396.8699645996094
 20
519.5074462890625
 30
29.99997901916504
 11
-396.68487548828125
 21
519.57177734375
 31
29.99997901916504
  0
LINE
  8
0
 10
-396.68487548828125
 20
519.57177734375
 30
29.99997901916504
 11
-396.48968505859375
 21
519.6116943359375
 31
29.99997901916504
  0
LINE
  8
0
 10
-396.48968505859375
 20
519.6116943359375
 30
29.99997901916504
 11
-396.28619384765625
 21
519.6253051757812
 31
29.99997901916504
  0
LINE
  8
0
 10
-396.28619384765625
 20
519.6253051757812
 30
29.99997901916504
 11
-396.08270263671875
 21
519.6116333007812
 31
29.99997901916504
  0
LINE
  8
0
 10
-396.08270263671875
 20
519.6116333007812
 30
29.99997901916504
 11
-395.88751220703125
 21
519.5717163085938
 31
29.99997901916504
  0
LINE
  8
0
 10
-395.88751220703125
 20
519.5717163085938
 30
29.99997901916504
 11
-395.7024230957031
 21
519.5073852539062
 31
29.99997901916504
  0
LINE
  8
0
 10
-395.7024230957031
 20
519.5073852539062
 30
29.99997901916504
 11
-395.52923583984375
 21
519.4204711914062
 31
29.99997901916504
  0
LINE
  8
0
 10
-395.52923583984375
 20
519.4204711914062
 30
29.99997901916504
 11
-395.36968994140625
 21
519.3126831054688
 31
29.99997901916504
  0
LINE
  8
0
 10
-395.36968994140625
 20
519.3126831054688
 30
29.99997901916504
 11
-395.2256164550781
 21
519.1858520507812
 31
29.99997901916504
  0
LINE
  8
0
 10
-395.2256164550781
 20
519.1858520507812
 30
29.99997901916504
 11
-395.09881591796875
 21
519.0418090820312
 31
29.99997901916504
  0
LINE
  8
0
 10
-395.09881591796875
 20
519.0418090820312
 30
29.99997901916504
 11
-394.99102783203125
 21
518.8822631835938
 31
29.99997901916504
  0
LINE
  8
0
 10
-394.99102783203125
 20
518.8822631835938
 30
29.99997901916504
 11
-394.90411376953125
 21
518.7090454101562
 31
29.99997901916504
  0
LINE
  8
0
 10
-394.90411376953125
 20
518.7090454101562
 30
29.99997901916504
 11
-394.83978271484375
 21
518.52392578125
 31
29.99997901916504
  0
LINE
  8
0
 10
-394.83978271484375
 20
518.52392578125
 30
29.99997901916504
 11
-394.7998962402344
 21
518.3287353515625
 31
29.99997901916504
  0
LINE
  8
0
 10
-394.7998962402344
 20
518.3287353515625
 30
29.99997901916504
 11
-394.78619384765625
 21
518.1253051757812
 31
29.99997901916504
  0
LINE
  8
0
 10
-394.78619384765625
 20
518.1253051757812
 30
29.99997901916504
 11
-394.7998962402344
 21
517.9218139648438
 31
29.99997901916504
  0
LINE
  8
0
 10
-394.7998962402344
 20
517.9218139648438
 30
29.99997901916504
 11
-394.83978271484375
 21
517.7266235351562
 31
29.99997901916504
  0
LINE
  8
0
 10
-394.83978271484375
 20
517.7266235351562
 30
29.99997901916504
 11
-394.90411376953125
 21
517.54150390625
 31
29.99997901916504
  0
LINE
  8
0
 10
-394.90411376953125
 20
517.54150390625
 30
29.99997901916504
 11
-394.99102783203125
 21
517.3682861328125
 31
29.99997901916504
  0
LINE
  8
0
 10
-394.99102783203125
 20
517.3682861328125
 30
29.99997901916504
 11
-395.09881591796875
 21
517.208740234375
 31
29.99997901916504
  0
LINE
  8
0
 10
-395.09881591796875
 20
517.208740234375
 30
29.99997901916504
 11
-395.2256164550781
 21
517.064697265625
 31
29.99997901916504
  0
LINE
  8
0
 10
-395.2256164550781
 20
517.064697265625
 30
29.99997901916504
 11
-395.36968994140625
 21
516.9378662109375
 31
29.99997901916504
  0
LINE
  8
0
 10
-395.36968994140625
 20
516.9378662109375
 30
29.99997901916504
 11
-395.52923583984375
 21
516.830078125
 31
29.99997901916504
  0
LINE
  8
0
 10
-395.52923583984375
 20
516.830078125
 30
29.99997901916504
 11
-395.7024230957031
 21
516.7431640625
 31
29.99997901916504
  0
LINE
  8
0
 10
-395.7024230957031
 20
516.7431640625
 30
29.99997901916504
 11
-395.88751220703125
 21
516.6788330078125
 31
29.99997901916504
  0
LINE
  8
0
 10
-395.88751220703125
 20
516.6788330078125
 30
29.99997901916504
 11
-396.08270263671875
 21
516.638916015625
 31
29.99997901916504
  0
LINE
  8
0
 10
-396.08270263671875
 20
516.638916015625
 30
29.99997901916504
 11
-396.28619384765625
 21
516.6253051757812
 31
29.99997901916504
  0
LINE
  8
0
 10
-396.28619384765625
 20
516.6253051757812
 30
29.99997901916504
 11
-396.48968505859375
 21
516.6389770507812
 31
29.99997901916504
  0
LINE
  8
0
 10
-396.48968505859375
 20
516.6389770507812
 30
29.99997901916504
 11
-396.68487548828125
 21
516.6788940429688
 31
29.99997901916504
  0
LINE
  8
0
 10
-396.68487548828125
 20
516.6788940429688
 30
29.99997901916504
 11
-396.8699645996094
 21
516.7432250976562
 31
29.99997901916504
  0
LINE
  8
0
 10
-396.8699645996094
 20
516.7432250976562
 30
29.99997901916504
 11
-397.04315185546875
 21
516.8301391601562
 31
29.99997901916504
  0
LINE
  8
0
 10
-397.04315185546875
 20
516.8301391601562
 30
29.99997901916504
 11
-397.20269775390625
 21
516.9379272460938
 31
29.99997901916504
  0
LINE
  8
0
 10
-397.20269775390625
 20
516.9379272460938
 30
29.99997901916504
 11
-397.3467712402344
 21
517.0647583007812
 31
29.99997901916504
  0
LINE
  8
0
 10
-397.3467712402344
 20
517.0647583007812
 30
29.99997901916504
 11
-397.47357177734375
 21
517.2088012695312
 31
29.99997901916504
  0
LINE
  8
0
 10
-397.47357177734375
 20
517.2088012695312
 30
29.99997901916504
 11
-397.58135986328125
 21
517.3683471679688
 31
29.99997901916504
  0
LINE
  8
0
 10
-397.58135986328125
 20
517.3683471679688
 30
29.99997901916504
 11
-397.66827392578125
 21
517.5415649414062
 31
29.99997901916504
  0
LINE
  8
0
 10
-397.66827392578125
 20
517.5415649414062
 30
29.99997901916504
 11
-397.73260498046875
 21
517.7266845703125
 31
29.99997901916504
  0
LINE
  8
0
 10
-397.73260498046875
 20
517.7266845703125
 30
29.99997901916504
 11
-397.7724914550781
 21
517.921875
 31
29.99997901916504
  0
LINE
  8
0
 10
-397.78619384765625
 20
518.1253051757812
 30
29.99997901916504
 11
-397.7724914550781
 21
517.921875
 31
29.99997901916504
  0
LINE
  8
0
 10
-460.03875732421875
 20
518.1309204101562
 30
30.0
 11
-460.05615234375
 21
517.6044311523438
 31
30.0
  0
LINE
  8
0
 10
-460.05615234375
 20
517.6044311523438
 30
30.0
 11
-460.10791015625
 21
517.0830688476562
 31
30.0
  0
LINE
  8
0
 10
-460.10791015625
 20
517.0830688476562
 30
30.0
 11
-460.1933898925781
 21
516.5684204101562
 31
30.0
  0
LINE
  8
0
 10
-460.1933898925781
 20
516.5684204101562
 30
30.0
 11
-460.31195068359375
 21
516.06201171875
 31
30.0
  0
LINE
  8
0
 10
-460.31195068359375
 20
516.06201171875
 30
30.0
 11
-460.4629211425781
 21
515.5654296875
 31
30.0
  0
LINE
  8
0
 10
-460.4629211425781
 20
515.5654296875
 30
30.0
 11
-460.6457214355469
 21
515.0801391601562
 31
30.0
  0
LINE
  8
0
 10
-460.6457214355469
 20
515.0801391601562
 30
30.0
 11
-460.8596496582031
 21
514.6078491210938
 31
30.0
  0
LINE
  8
0
 10
-460.8596496582031
 20
514.6078491210938
 30
30.0
 11
-461.1040954589844
 21
514.14990234375
 31
30.0
  0
LINE
  8
0
 10
-461.1040954589844
 20
514.14990234375
 30
30.0
 11
-461.37841796875
 21
513.7080688476562
 31
30.0
  0
LINE
  8
0
 10
-461.37841796875
 20
513.7080688476562
 30
30.0
 11
-461.6819763183594
 21
513.28369140625
 31
30.0
  0
LINE
  8
0
 10
-461.6819763183594
 20
513.28369140625
 30
30.0
 11
-462.0141296386719
 21
512.8784790039062
 31
30.0
  0
LINE
  8
0
 10
-462.0141296386719
 20
512.8784790039062
 30
30.0
 11
-462.37420654296875
 21
512.4938354492188
 31
30.0
  0
LINE
  8
0
 10
-462.37420654296875
 20
512.4938354492188
 30
30.0
 11
-462.5865783691406
 21
512.272216796875
 31
30.0
  0
LINE
  8
0
 10
-462.5865783691406
 20
512.272216796875
 30
30.0
 11
-462.7662048339844
 21
512.0650634765625
 31
30.0
  0
LINE
  8
0
 10
-462.7662048339844
 20
512.0650634765625
 30
30.0
 11
-462.91632080078125
 21
511.8695068359375
 31
30.0
  0
LINE
  8
0
 10
-462.91632080078125
 20
511.8695068359375
 30
30.0
 11
-463.0402526855469
 21
511.68267822265625
 31
30.0
  0
LINE
  8
0
 10
-463.0402526855469
 20
511.68267822265625
 30
30.0
 11
-463.1412353515625
 21
511.501708984375
 31
30.0
  0
LINE
  8
0
 10
-463.1412353515625
 20
511.501708984375
 30
30.0
 11
-463.2225341796875
 21
511.32379150390625
 31
30.0
  0
LINE
  8
0
 10
-463.2225341796875
 20
511.32379150390625
 30
30.0
 11
-463.2874755859375
 21
511.14593505859375
 31
30.0
  0
LINE
  8
0
 10
-463.2874755859375
 20
511.14593505859375
 30
30.0
 11
-463.33929443359375
 21
510.9654541015625
 31
30.0
  0
LINE
  8
0
 10
-463.33929443359375
 20
510.9654541015625
 30
30.0
 11
-463.3812561035156
 21
510.77935791015625
 31
30.0
  0
LINE
  8
0
 10
-463.3812561035156
 20
510.77935791015625
 30
30.0
 11
-463.41668701171875
 21
510.58477783203125
 31
30.0
  0
LINE
  8
0
 10
-463.41668701171875
 20
510.58477783203125
 30
30.0
 11
-463.4488525390625
 21
510.37890625
 31
30.0
  0
LINE
  8
0
 10
-463.4488525390625
 20
510.37890625
 30
30.0
 11
-463.48095703125
 21
510.158935546875
 31
30.0
  0
LINE
  8
0
 10
-463.48095703125
 20
510.158935546875
 30
30.0
 11
-463.5492858886719
 21
509.71112060546875
 31
30.0
  0
LINE
  8
0
 10
-463.5492858886719
 20
509.71112060546875
 30
30.0
 11
-463.6134338378906
 21
509.29443359375
 31
30.0
  0
LINE
  8
0
 10
-463.6134338378906
 20
509.29443359375
 30
30.0
 11
-463.66925048828125
 21
508.876220703125
 31
30.0
  0
LINE
  8
0
 10
-463.66925048828125
 20
508.876220703125
 30
30.0
 11
-463.7127380371094
 21
508.4239501953125
 31
30.0
  0
LINE
  8
0
 10
-463.7127380371094
 20
508.4239501953125
 30
30.0
 11
-463.7397766113281
 21
507.90496826171875
 31
30.0
  0
LINE
  8
0
 10
-463.7397766113281
 20
507.90496826171875
 30
30.0
 11
-463.7463073730469
 21
507.286865234375
 31
30.0
  0
LINE
  8
0
 10
-463.7463073730469
 20
507.286865234375
 30
30.0
 11
-463.728271484375
 21
506.53692626953125
 31
30.0
  0
LINE
  8
0
 10
-463.728271484375
 20
506.53692626953125
 30
30.0
 11
-463.6815185546875
 21
505.62261962890625
 31
30.0
  0
LINE
  8
0
 10
-463.6815185546875
 20
505.62261962890625
 30
30.0
 11
-463.60205078125
 21
504.51141357421875
 31
30.0
  0
LINE
  8
0
 10
-463.60205078125
 20
504.51141357421875
 30
30.0
 11
-463.48577880859375
 21
503.170654296875
 31
30.0
  0
LINE
  8
0
 10
-463.48577880859375
 20
503.170654296875
 30
30.0
 11
-463.3285827636719
 21
501.56787109375
 31
30.0
  0
LINE
  8
0
 10
-463.3285827636719
 20
501.56787109375
 30
30.0
 11
-463.1264343261719
 21
499.67041015625
 31
30.0
  0
LINE
  8
0
 10
-463.1264343261719
 20
499.67041015625
 30
30.0
 11
-463.0273742675781
 21
498.9501953125
 31
30.0
  0
LINE
  8
0
 10
-463.0273742675781
 20
498.9501953125
 30
30.0
 11
-462.8898620605469
 21
498.239013671875
 31
30.0
  0
LINE
  8
0
 10
-462.8898620605469
 20
498.239013671875
 30
30.0
 11
-462.7145080566406
 21
497.538330078125
 31
30.0
  0
LINE
  8
0
 10
-462.7145080566406
 20
497.538330078125
 30
30.0
 11
-462.5020446777344
 21
496.84967041015625
 31
30.0
  0
LINE
  8
0
 10
-462.5020446777344
 20
496.84967041015625
 30
30.0
 11
-462.2530517578125
 21
496.1744384765625
 31
30.0
  0
LINE
  8
0
 10
-462.2530517578125
 20
496.1744384765625
 30
30.0
 11
-461.9682922363281
 21
495.51397705078125
 31
30.0
  0
LINE
  8
0
 10
-461.9682922363281
 20
495.51397705078125
 30
30.0
 11
-461.6483459472656
 21
494.869873046875
 31
30.0
  0
LINE
  8
0
 10
-461.6483459472656
 20
494.869873046875
 30
30.0
 11
-461.2939453125
 21
494.24346923828125
 31
30.0
  0
LINE
  8
0
 10
-461.2939453125
 20
494.24346923828125
 30
30.0
 11
-460.9057312011719
 21
493.63623046875
 31
30.0
  0
LINE
  8
0
 10
-460.9057312011719
 20
493.63623046875
 30
30.0
 11
-460.4843444824219
 21
493.049560546875
 31
30.0
  0
LINE
  8
0
 10
-460.4843444824219
 20
493.049560546875
 30
30.0
 11
-460.0304870605469
 21
492.4849853515625
 31
30.0
  0
LINE
  8
0
 10
-460.0304870605469
 20
492.4849853515625
 30
30.0
 11
-459.5448303222656
 21
491.94384765625
 31
30.0
  0
LINE
  8
0
 10
-459.5448303222656
 20
491.94384765625
 30
30.0
 11
-459.03045654296875
 21
491.429931640625
 31
30.0
  0
LINE
  8
0
 10
-459.03045654296875
 20
491.429931640625
 30
30.0
 11
-458.49090576171875
 21
490.946533203125
 31
30.0
  0
LINE
  8
0
 10
-458.49090576171875
 20
490.946533203125
 30
30.0
 11
-457.9276123046875
 21
490.49432373046875
 31
30.0
  0
LINE
  8
0
 10
-457.9276123046875
 20
490.49432373046875
 30
30.0
 11
-457.3419494628906
 21
490.07415771484375
 31
30.0
  0
LINE
  8
0
 10
-457.3419494628906
 20
490.07415771484375
 30
30.0
 11
-456.7353210449219
 21
489.68670654296875
 31
30.0
  0
LINE
  8
0
 10
-456.7353210449219
 20
489.68670654296875
 30
30.0
 11
-456.1091613769531
 21
489.332763671875
 31
30.0
  0
LINE
  8
0
 10
-456.1091613769531
 20
489.332763671875
 30
30.0
 11
-455.46484375
 21
489.01300048828125
 31
30.0
  0
LINE
  8
0
 10
-455.46484375
 20
489.01300048828125
 30
30.0
 11
-454.80377197265625
 21
488.72821044921875
 31
30.0
  0
LINE
  8
0
 10
-454.80377197265625
 20
488.72821044921875
 30
30.0
 11
-454.1273498535156
 21
488.47906494140625
 31
30.0
  0
LINE
  8
0
 10
-454.1273498535156
 20
488.47906494140625
 30
30.0
 11
-453.4369812011719
 21
488.26641845703125
 31
30.0
  0
LINE
  8
0
 10
-453.4369812011719
 20
488.26641845703125
 30
30.0
 11
-452.73406982421875
 21
488.0909423828125
 31
30.0
  0
LINE
  8
0
 10
-452.73406982421875
 20
488.0909423828125
 30
30.0
 11
-452.02001953125
 21
487.95343017578125
 31
30.0
  0
LINE
  8
0
 10
-452.02001953125
 20
487.95343017578125
 30
30.0
 11
-450.41815185546875
 21
487.7010498046875
 31
30.0
  0
LINE
  8
0
 10
-450.41815185546875
 20
487.7010498046875
 30
30.0
 11
-448.8138122558594
 21
487.47064208984375
 31
30.0
  0
LINE
  8
0
 10
-448.8138122558594
 20
487.47064208984375
 30
30.0
 11
-447.20721435546875
 21
487.26214599609375
 31
30.0
  0
LINE
  8
0
 10
-447.20721435546875
 20
487.26214599609375
 30
30.0
 11
-445.5986328125
 21
487.07568359375
 31
30.0
  0
LINE
  8
0
 10
-445.5986328125
 20
487.07568359375
 30
30.0
 11
-443.98822021484375
 21
486.91107177734375
 31
30.0
  0
LINE
  8
0
 10
-443.98822021484375
 20
486.91107177734375
 30
30.0
 11
-442.3762512207031
 21
486.7684326171875
 31
30.0
  0
LINE
  8
0
 10
-442.3762512207031
 20
486.7684326171875
 30
30.0
 11
-440.762939453125
 21
486.64776611328125
 31
30.0
  0
LINE
  8
0
 10
-440.762939453125
 20
486.64776611328125
 30
30.0
 11
-439.14849853515625
 21
486.54901123046875
 31
30.0
  0
LINE
  8
0
 10
-439.14849853515625
 20
486.54901123046875
 30
30.0
 11
-437.5331726074219
 21
486.47222900390625
 31
30.0
  0
LINE
  8
0
 10
-437.5331726074219
 20
486.47222900390625
 30
30.0
 11
-435.91717529296875
 21
486.4173583984375
 31
30.0
  0
LINE
  8
0
 10
-435.91717529296875
 20
486.4173583984375
 30
30.0
 11
-434.30072021484375
 21
486.3843994140625
 31
30.0
  0
LINE
  8
0
 10
-434.30072021484375
 20
486.3843994140625
 30
30.0
 11
-432.6840515136719
 21
486.37347412109375
 31
30.0
  0
LINE
  8
0
 10
-405.3309326171875
 20
518.1309204101562
 30
30.0
 11
-405.31353759765625
 21
517.6044311523438
 31
30.0
  0
LINE
  8
0
 10
-405.31353759765625
 20
517.6044311523438
 30
30.0
 11
-405.26177978515625
 21
517.0830688476562
 31
30.0
  0
LINE
  8
0
 10
-405.26177978515625
 20
517.0830688476562
 30
30.0
 11
-405.1763000488281
 21
516.5684204101562
 31
30.0
  0
LINE
  8
0
 10
-405.1763000488281
 20
516.5684204101562
 30
30.0
 11
-405.0577392578125
 21
516.06201171875
 31
30.0
  0
LINE
  8
0
 10
-405.0577392578125
 20
516.06201171875
 30
30.0
 11
-404.9067687988281
 21
515.5654296875
 31
30.0
  0
LINE
  8
0
 10
-404.9067687988281
 20
515.5654296875
 30
30.0
 11
-404.7239685058594
 21
515.0801391601562
 31
30.0
  0
LINE
  8
0
 10
-404.7239685058594
 20
515.0801391601562
 30
30.0
 11
-404.5100402832031
 21
514.6078491210938
 31
30.0
  0
LINE
  8
0
 10
-404.5100402832031
 20
514.6078491210938
 30
30.0
 11
-404.26556396484375
 21
514.14990234375
 31
30.0
  0
LINE
  8
0
 10
-404.26556396484375
 20
514.14990234375
 30
30.0
 11
-403.99127197265625
 21
513.7080688476562
 31
30.0
  0
LINE
  8
0
 10
-403.99127197265625
 20
513.7080688476562
 30
30.0
 11
-403.6877136230469
 21
513.28369140625
 31
30.0
  0
LINE
  8
0
 10
-403.6877136230469
 20
513.28369140625
 30
30.0
 11
-403.3555908203125
 21
512.8784790039062
 31
30.0
  0
LINE
  8
0
 10
-403.3555908203125
 20
512.8784790039062
 30
30.0
 11
-402.9954833984375
 21
512.4938354492188
 31
30.0
  0
LINE
  8
0
 10
-402.9954833984375
 20
512.4938354492188
 30
30.0
 11
-402.7831115722656
 21
512.272216796875
 31
30.0
  0
LINE
  8
0
 10
-402.7831115722656
 20
512.272216796875
 30
30.0
 11
-402.6034851074219
 21
512.0650634765625
 31
30.0
  0
LINE
  8
0
 10
-402.6034851074219
 20
512.0650634765625
 30
30.0
 11
-402.453369140625
 21
511.8695068359375
 31
30.0
  0
LINE
  8
0
 10
-402.453369140625
 20
511.8695068359375
 30
30.0
 11
-402.3294677734375
 21
511.68267822265625
 31
30.0
  0
LINE
  8
0
 10
-402.3294677734375
 20
511.68267822265625
 30
30.0
 11
-402.22845458984375
 21
511.501708984375
 31
30.0
  0
LINE
  8
0
 10
-402.22845458984375
 20
511.501708984375
 30
30.0
 11
-402.14715576171875
 21
511.32379150390625
 31
30.0
  0
LINE
  8
0
 10
-402.14715576171875
 20
511.32379150390625
 30
30.0
 11
-402.08221435546875
 21
511.14593505859375
 31
30.0
  0
LINE
  8
0
 10
-402.08221435546875
 20
511.14593505859375
 30
30.0
 11
-402.0303955078125
 21
510.9654541015625
 31
30.0
  0
LINE
  8
0
 10
-402.0303955078125
 20
510.9654541015625
 30
30.0
 11
-401.9884033203125
 21
510.77935791015625
 31
30.0
  0
LINE
  8
0
 10
-401.9884033203125
 20
510.77935791015625
 30
30.0
 11
-401.9530029296875
 21
510.58477783203125
 31
30.0
  0
LINE
  8
0
 10
-401.9530029296875
 20
510.58477783203125
 30
30.0
 11
-401.92083740234375
 21
510.37890625
 31
30.0
  0
LINE
  8
0
 10
-401.92083740234375
 20
510.37890625
 30
30.0
 11
-401.88873291015625
 21
510.158935546875
 31
30.0
  0
LINE
  8
0
 10
-401.88873291015625
 20
510.158935546875
 30
30.0
 11
-401.82037353515625
 21
509.71112060546875
 31
30.0
  0
LINE
  8
0
 10
-401.82037353515625
 20
509.71112060546875
 30
30.0
 11
-401.75628662109375
 21
509.29443359375
 31
30.0
  0
LINE
  8
0
 10
-401.75628662109375
 20
509.29443359375
 30
30.0
 11
-401.700439453125
 21
508.876220703125
 31
30.0
  0
LINE
  8
0
 10
-401.700439453125
 20
508.876220703125
 30
30.0
 11
-401.6569519042969
 21
508.4239501953125
 31
30.0
  0
LINE
  8
0
 10
-401.6569519042969
 20
508.4239501953125
 30
30.0
 11
-401.6299133300781
 21
507.90496826171875
 31
30.0
  0
LINE
  8
0
 10
-401.6299133300781
 20
507.90496826171875
 30
30.0
 11
-401.62335205078125
 21
507.286865234375
 31
30.0
  0
LINE
  8
0
 10
-401.62335205078125
 20
507.286865234375
 30
30.0
 11
-401.64141845703125
 21
506.53692626953125
 31
30.0
  0
LINE
  8
0
 10
-401.64141845703125
 20
506.53692626953125
 30
30.0
 11
-401.68817138671875
 21
505.62261962890625
 31
30.0
  0
LINE
  8
0
 10
-401.68817138671875
 20
505.62261962890625
 30
30.0
 11
-401.76763916015625
 21
504.51141357421875
 31
30.0
  0
LINE
  8
0
 10
-401.76763916015625
 20
504.51141357421875
 30
30.0
 11
-401.8839111328125
 21
503.170654296875
 31
30.0
  0
LINE
  8
0
 10
-401.8839111328125
 20
503.170654296875
 30
30.0
 11
-402.0411071777344
 21
501.56787109375
 31
30.0
  0
LINE
  8
0
 10
-402.0411071777344
 20
501.56787109375
 30
30.0
 11
-402.2432556152344
 21
499.67041015625
 31
30.0
  0
LINE
  8
0
 10
-402.2432556152344
 20
499.67041015625
 30
30.0
 11
-402.3423156738281
 21
498.9501953125
 31
30.0
  0
LINE
  8
0
 10
-402.3423156738281
 20
498.9501953125
 30
30.0
 11
-402.4798278808594
 21
498.239013671875
 31
30.0
  0
LINE
  8
0
 10
-402.4798278808594
 20
498.239013671875
 30
30.0
 11
-402.6551513671875
 21
497.538330078125
 31
30.0
  0
LINE
  8
0
 10
-402.6551513671875
 20
497.538330078125
 30
30.0
 11
-402.86767578125
 21
496.84967041015625
 31
30.0
  0
LINE
  8
0
 10
-402.86767578125
 20
496.84967041015625
 30
30.0
 11
-403.11663818359375
 21
496.1744384765625
 31
30.0
  0
LINE
  8
0
 10
-403.11663818359375
 20
496.1744384765625
 30
30.0
 11
-403.4013977050781
 21
495.51397705078125
 31
30.0
  0
LINE
  8
0
 10
-403.4013977050781
 20
495.51397705078125
 30
30.0
 11
-403.7213439941406
 21
494.869873046875
 31
30.0
  0
LINE
  8
0
 10
-403.7213439941406
 20
494.869873046875
 30
30.0
 11
-404.07574462890625
 21
494.24346923828125
 31
30.0
  0
LINE
  8
0
 10
-404.07574462890625
 20
494.24346923828125
 30
30.0
 11
-404.4639892578125
 21
493.63623046875
 31
30.0
  0
LINE
  8
0
 10
-404.4639892578125
 20
493.63623046875
 30
30.0
 11
-404.8853454589844
 21
493.049560546875
 31
30.0
  0
LINE
  8
0
 10
-404.8853454589844
 20
493.049560546875
 30
30.0
 11
-405.33917236328125
 21
492.4849853515625
 31
30.0
  0
LINE
  8
0
 10
-405.33917236328125
 20
492.4849853515625
 30
30.0
 11
-405.8248596191406
 21
491.94384765625
 31
30.0
  0
LINE
  8
0
 10
-405.8248596191406
 20
491.94384765625
 30
30.0
 11
-406.3392333984375
 21
491.429931640625
 31
30.0
  0
LINE
  8
0
 10
-406.3392333984375
 20
491.429931640625
 30
30.0
 11
-406.8787841796875
 21
490.946533203125
 31
30.0
  0
LINE
  8
0
 10
-406.8787841796875
 20
490.946533203125
 30
30.0
 11
-407.44207763671875
 21
490.49432373046875
 31
30.0
  0
LINE
  8
0
 10
-407.44207763671875
 20
490.49432373046875
 30
30.0
 11
-408.0277404785156
 21
490.07415771484375
 31
30.0
  0
LINE
  8
0
 10
-408.0277404785156
 20
490.07415771484375
 30
30.0
 11
-408.6343688964844
 21
489.68670654296875
 31
30.0
  0
LINE
  8
0
 10
-408.6343688964844
 20
489.68670654296875
 30
30.0
 11
-409.2605285644531
 21
489.332763671875
 31
30.0
  0
LINE
  8
0
 10
-409.2605285644531
 20
489.332763671875
 30
30.0
 11
-409.90484619140625
 21
489.01300048828125
 31
30.0
  0
LINE
  8
0
 10
-409.90484619140625
 20
489.01300048828125
 30
30.0
 11
-410.56591796875
 21
488.72821044921875
 31
30.0
  0
LINE
  8
0
 10
-410.56591796875
 20
488.72821044921875
 30
30.0
 11
-411.2423400878906
 21
488.47906494140625
 31
30.0
  0
LINE
  8
0
 10
-411.2423400878906
 20
488.47906494140625
 30
30.0
 11
-411.9327087402344
 21
488.26641845703125
 31
30.0
  0
LINE
  8
0
 10
-411.9327087402344
 20
488.26641845703125
 30
30.0
 11
-412.6356201171875
 21
488.0909423828125
 31
30.0
  0
LINE
  8
0
 10
-412.6356201171875
 20
488.0909423828125
 30
30.0
 11
-413.34967041015625
 21
487.95343017578125
 31
30.0
  0
LINE
  8
0
 10
-413.34967041015625
 20
487.95343017578125
 30
30.0
 11
-414.9515380859375
 21
487.7010498046875
 31
30.0
  0
LINE
  8
0
 10
-414.9515380859375
 20
487.7010498046875
 30
30.0
 11
-416.555908203125
 21
487.47064208984375
 31
30.0
  0
LINE
  8
0
 10
-416.555908203125
 20
487.47064208984375
 30
30.0
 11
-418.1624755859375
 21
487.26214599609375
 31
30.0
  0
LINE
  8
0
 10
-418.1624755859375
 20
487.26214599609375
 30
30.0
 11
-419.77105712890625
 21
487.07568359375
 31
30.0
  0
LINE
  8
0
 10
-419.77105712890625
 20
487.07568359375
 30
30.0
 11
-421.3814697265625
 21
486.91107177734375
 31
30.0
  0
LINE
  8
0
 10
-421.3814697265625
 20
486.91107177734375
 30
30.0
 11
-422.9934387207031
 21
486.7684326171875
 31
30.0
  0
LINE
  8
0
 10
-422.9934387207031
 20
486.7684326171875
 30
30.0
 11
-424.60675048828125
 21
486.64776611328125
 31
30.0
  0
LINE
  8
0
 10
-424.60675048828125
 20
486.64776611328125
 30
30.0
 11
-426.22119140625
 21
486.54901123046875
 31
30.0
  0
LINE
  8
0
 10
-426.22119140625
 20
486.54901123046875
 30
30.0
 11
-427.8365173339844
 21
486.47222900390625
 31
30.0
  0
LINE
  8
0
 10
-427.8365173339844
 20
486.47222900390625
 30
30.0
 11
-429.4525146484375
 21
486.4173583984375
 31
30.0
  0
LINE
  8
0
 10
-429.4525146484375
 20
486.4173583984375
 30
30.0
 11
-431.0689697265625
 21
486.3843994140625
 31
30.0
  0
LINE
  8
0
 10
-431.0689697265625
 20
486.3843994140625
 30
30.0
 11
-432.6856384277344
 21
486.37347412109375
 31
30.0
  0
LINE
  8
0
 10
-460.03875732421875
 20
518.128173828125
 30
30.0
 11
-460.05615234375
 21
518.6546630859375
 31
30.0
  0
LINE
  8
0
 10
-460.05615234375
 20
518.6546630859375
 30
30.0
 11
-460.10791015625
 21
519.176025390625
 31
30.0
  0
LINE
  8
0
 10
-460.10791015625
 20
519.176025390625
 30
30.0
 11
-460.1933898925781
 21
519.690673828125
 31
30.0
  0
LINE
  8
0
 10
-460.1933898925781
 20
519.690673828125
 30
30.0
 11
-460.31195068359375
 21
520.1970825195312
 31
30.0
  0
LINE
  8
0
 10
-460.31195068359375
 20
520.1970825195312
 30
30.0
 11
-460.4629211425781
 21
520.6936645507812
 31
30.0
  0
LINE
  8
0
 10
-460.4629211425781
 20
520.6936645507812
 30
30.0
 11
-460.6457214355469
 21
521.178955078125
 31
30.0
  0
LINE
  8
0
 10
-460.6457214355469
 20
521.178955078125
 30
30.0
 11
-460.8596496582031
 21
521.6512451171875
 31
30.0
  0
LINE
  8
0
 10
-460.8596496582031
 20
521.6512451171875
 30
30.0
 11
-461.1040954589844
 21
522.1091918945312
 31
30.0
  0
LINE
  8
0
 10
-461.1040954589844
 20
522.1091918945312
 30
30.0
 11
-461.37841796875
 21
522.551025390625
 31
30.0
  0
LINE
  8
0
 10
-461.37841796875
 20
522.551025390625
 30
30.0
 11
-461.6819763183594
 21
522.9754028320312
 31
30.0
  0
LINE
  8
0
 10
-461.6819763183594
 20
522.9754028320312
 30
30.0
 11
-462.0141296386719
 21
523.380615234375
 31
30.0
  0
LINE
  8
0
 10
-462.0141296386719
 20
523.380615234375
 30
30.0
 11
-462.37420654296875
 21
523.7652587890625
 31
30.0
  0
LINE
  8
0
 10
-462.37420654296875
 20
523.7652587890625
 30
30.0
 11
-462.5865783691406
 21
523.9868774414062
 31
30.0
  0
LINE
  8
0
 10
-462.5865783691406
 20
523.9868774414062
 30
30.0
 11
-462.7662048339844
 21
524.1940307617188
 31
30.0
  0
LINE
  8
0
 10
-462.7662048339844
 20
524.1940307617188
 30
30.0
 11
-462.91632080078125
 21
524.3895874023438
 31
30.0
  0
LINE
  8
0
 10
-462.91632080078125
 20
524.3895874023438
 30
30.0
 11
-463.0402526855469
 21
524.576416015625
 31
30.0
  0
LINE
  8
0
 10
-463.0402526855469
 20
524.576416015625
 30
30.0
 11
-463.1412353515625
 21
524.7573852539062
 31
30.0
  0
LINE
  8
0
 10
-463.1412353515625
 20
524.7573852539062
 30
30.0
 11
-463.2225341796875
 21
524.935302734375
 31
30.0
  0
LINE
  8
0
 10
-463.2225341796875
 20
524.935302734375
 30
30.0
 11
-463.2874755859375
 21
525.1131591796875
 31
30.0
  0
LINE
  8
0
 10
-463.2874755859375
 20
525.1131591796875
 30
30.0
 11
-463.33929443359375
 21
525.2936401367188
 31
30.0
  0
LINE
  8
0
 10
-463.33929443359375
 20
525.2936401367188
 30
30.0
 11
-463.3812561035156
 21
525.479736328125
 31
30.0
  0
LINE
  8
0
 10
-463.3812561035156
 20
525.479736328125
 30
30.0
 11
-463.41668701171875
 21
525.67431640625
 31
30.0
  0
LINE
  8
0
 10
-463.41668701171875
 20
525.67431640625
 30
30.0
 11
-463.4488525390625
 21
525.8801879882812
 31
30.0
  0
LINE
  8
0
 10
-463.4488525390625
 20
525.8801879882812
 30
30.0
 11
-463.48095703125
 21
526.1001586914062
 31
30.0
  0
LINE
  8
0
 10
-463.48095703125
 20
526.1001586914062
 30
30.0
 11
-463.5492858886719
 21
526.5479736328125
 31
30.0
  0
LINE
  8
0
 10
-463.5492858886719
 20
526.5479736328125
 30
30.0
 11
-463.6134338378906
 21
526.9646606445312
 31
30.0
  0
LINE
  8
0
 10
-463.6134338378906
 20
526.9646606445312
 30
30.0
 11
-463.66925048828125
 21
527.3828735351562
 31
30.0
  0
LINE
  8
0
 10
-463.66925048828125
 20
527.3828735351562
 30
30.0
 11
-463.7127380371094
 21
527.8351440429688
 31
30.0
  0
LINE
  8
0
 10
-463.7127380371094
 20
527.8351440429688
 30
30.0
 11
-463.7397766113281
 21
528.3541259765625
 31
30.0
  0
LINE
  8
0
 10
-463.7397766113281
 20
528.3541259765625
 30
30.0
 11
-463.7463073730469
 21
528.9722290039062
 31
30.0
  0
LINE
  8
0
 10
-463.7463073730469
 20
528.9722290039062
 30
30.0
 11
-463.728271484375
 21
529.72216796875
 31
30.0
  0
LINE
  8
0
 10
-463.728271484375
 20
529.72216796875
 30
30.0
 11
-463.6815185546875
 21
530.636474609375
 31
30.0
  0
LINE
  8
0
 10
-463.6815185546875
 20
530.636474609375
 30
30.0
 11
-463.60205078125
 21
531.7476806640625
 31
30.0
  0
LINE
  8
0
 10
-463.60205078125
 20
531.7476806640625
 30
30.0
 11
-463.48577880859375
 21
533.0884399414062
 31
30.0
  0
LINE
  8
0
 10
-463.48577880859375
 20
533.0884399414062
 30
30.0
 11
-463.3285827636719
 21
534.6912231445312
 31
30.0
  0
LINE
  8
0
 10
-463.3285827636719
 20
534.6912231445312
 30
30.0
 11
-463.1264343261719
 21
536.5886840820312
 31
30.0
  0
LINE
  8
0
 10
-463.1264343261719
 20
536.5886840820312
 30
30.0
 11
-463.0273742675781
 21
537.3088989257812
 31
30.0
  0
LINE
  8
0
 10
-463.0273742675781
 20
537.3088989257812
 30
30.0
 11
-462.8898620605469
 21
538.0200805664062
 31
30.0
  0
LINE
  8
0
 10
-462.8898620605469
 20
538.0200805664062
 30
30.0
 11
-462.7145080566406
 21
538.7207641601562
 31
30.0
  0
LINE
  8
0
 10
-462.7145080566406
 20
538.7207641601562
 30
30.0
 11
-462.5020446777344
 21
539.409423828125
 31
30.0
  0
LINE
  8
0
 10
-462.5020446777344
 20
539.409423828125
 30
30.0
 11
-462.2530517578125
 21
540.0846557617188
 31
30.0
  0
LINE
  8
0
 10
-462.2530517578125
 20
540.0846557617188
 30
30.0
 11
-461.9682922363281
 21
540.7451171875
 31
30.0
  0
LINE
  8
0
 10
-461.9682922363281
 20
540.7451171875
 30
30.0
 11
-461.6483459472656
 21
541.3892211914062
 31
30.0
  0
LINE
  8
0
 10
-461.6483459472656
 20
541.3892211914062
 30
30.0
 11
-461.2939453125
 21
542.015625
 31
30.0
  0
LINE
  8
0
 10
-461.2939453125
 20
542.015625
 30
30.0
 11
-460.9057312011719
 21
542.6228637695312
 31
30.0
  0
LINE
  8
0
 10
-460.9057312011719
 20
542.6228637695312
 30
30.0
 11
-460.4843444824219
 21
543.2095336914062
 31
30.0
  0
LINE
  8
0
 10
-460.4843444824219
 20
543.2095336914062
 30
30.0
 11
-460.0304870605469
 21
543.7741088867188
 31
30.0
  0
LINE
  8
0
 10
-460.0304870605469
 20
543.7741088867188
 30
30.0
 11
-459.5448303222656
 21
544.3152465820312
 31
30.0
  0
LINE
  8
0
 10
-459.5448303222656
 20
544.3152465820312
 30
30.0
 11
-459.03045654296875
 21
544.8291625976562
 31
30.0
  0
LINE
  8
0
 10
-459.03045654296875
 20
544.8291625976562
 30
30.0
 11
-458.49090576171875
 21
545.3125610351562
 31
30.0
  0
LINE
  8
0
 10
-458.49090576171875
 20
545.3125610351562
 30
30.0
 11
-457.9276123046875
 21
545.7647705078125
 31
30.0
  0
LINE
  8
0
 10
-457.9276123046875
 20
545.7647705078125
 30
30.0
 11
-457.3419494628906
 21
546.1849365234375
 31
30.0
  0
LINE
  8
0
 10
-457.3419494628906
 20
546.1849365234375
 30
30.0
 11
-456.7353210449219
 21
546.5723876953125
 31
30.0
  0
LINE
  8
0
 10
-456.7353210449219
 20
546.5723876953125
 30
30.0
 11
-456.1091613769531
 21
546.9263305664062
 31
30.0
  0
LINE
  8
0
 10
-456.1091613769531
 20
546.9263305664062
 30
30.0
 11
-455.46484375
 21
547.24609375
 31
30.0
  0
LINE
  8
0
 10
-455.46484375
 20
547.24609375
 30
30.0
 11
-454.80377197265625
 21
547.5308837890625
 31
30.0
  0
LINE
  8
0
 10
-454.80377197265625
 20
547.5308837890625
 30
30.0
 11
-454.1273498535156
 21
547.780029296875
 31
30.0
  0
LINE
  8
0
 10
-454.1273498535156
 20
547.780029296875
 30
30.0
 11
-453.4369812011719
 21
547.99267578125
 31
30.0
  0
LINE
  8
0
 10
-453.4369812011719
 20
547.99267578125
 30
30.0
 11
-452.73406982421875
 21
548.1681518554688
 31
30.0
  0
LINE
  8
0
 10
-452.73406982421875
 20
548.1681518554688
 30
30.0
 11
-452.02001953125
 21
548.3056640625
 31
30.0
  0
LINE
  8
0
 10
-452.02001953125
 20
548.3056640625
 30
30.0
 11
-450.41815185546875
 21
548.5580444335938
 31
30.0
  0
LINE
  8
0
 10
-450.41815185546875
 20
548.5580444335938
 30
30.0
 11
-448.8138122558594
 21
548.7884521484375
 31
30.0
  0
LINE
  8
0
 10
-448.8138122558594
 20
548.7884521484375
 30
30.0
 11
-447.20721435546875
 21
548.9968872070312
 31
30.0
  0
LINE
  8
0
 10
-447.20721435546875
 20
548.9968872070312
 30
30.0
 11
-445.5986328125
 21
549.1834106445312
 31
30.0
  0
LINE
  8
0
 10
-445.5986328125
 20
549.1834106445312
 30
30.0
 11
-443.98822021484375
 21
549.3480224609375
 31
30.0
  0
LINE
  8
0
 10
-443.98822021484375
 20
549.3480224609375
 30
30.0
 11
-442.3762512207031
 21
549.4906616210938
 31
30.0
  0
LINE
  8
0
 10
-442.3762512207031
 20
549.4906616210938
 30
30.0
 11
-440.762939453125
 21
549.611328125
 31
30.0
  0
LINE
  8
0
 10
-440.762939453125
 20
549.611328125
 30
30.0
 11
-439.14849853515625
 21
549.7100830078125
 31
30.0
  0
LINE
  8
0
 10
-439.14849853515625
 20
549.7100830078125
 30
30.0
 11
-437.5331726074219
 21
549.786865234375
 31
30.0
  0
LINE
  8
0
 10
-437.5331726074219
 20
549.786865234375
 30
30.0
 11
-435.91717529296875
 21
549.8417358398438
 31
30.0
  0
LINE
  8
0
 10
-435.91717529296875
 20
549.8417358398438
 30
30.0
 11
-434.30072021484375
 21
549.8746948242188
 31
30.0
  0
LINE
  8
0
 10
-434.30072021484375
 20
549.8746948242188
 30
30.0
 11
-432.6840515136719
 21
549.8856201171875
 31
30.0
  0
LINE
  8
0
 10
-405.3309326171875
 20
518.128173828125
 30
30.0
 11
-405.31353759765625
 21
518.6546630859375
 31
30.0
  0
LINE
  8
0
 10
-405.31353759765625
 20
518.6546630859375
 30
30.0
 11
-405.26177978515625
 21
519.176025390625
 31
30.0
  0
LINE
  8
0
 10
-405.26177978515625
 20
519.176025390625
 30
30.0
 11
-405.1763000488281
 21
519.690673828125
 31
30.0
  0
LINE
  8
0
 10
-405.1763000488281
 20
519.690673828125
 30
30.0
 11
-405.0577392578125
 21
520.1970825195312
 31
30.0
  0
LINE
  8
0
 10
-405.0577392578125
 20
520.1970825195312
 30
30.0
 11
-404.9067687988281
 21
520.6936645507812
 31
30.0
  0
LINE
  8
0
 10
-404.9067687988281
 20
520.6936645507812
 30
30.0
 11
-404.7239685058594
 21
521.178955078125
 31
30.0
  0
LINE
  8
0
 10
-404.7239685058594
 20
521.178955078125
 30
30.0
 11
-404.5100402832031
 21
521.6512451171875
 31
30.0
  0
LINE
  8
0
 10
-404.5100402832031
 20
521.6512451171875
 30
30.0
 11
-404.26556396484375
 21
522.1091918945312
 31
30.0
  0
LINE
  8
0
 10
-404.26556396484375
 20
522.1091918945312
 30
30.0
 11
-403.99127197265625
 21
522.551025390625
 31
30.0
  0
LINE
  8
0
 10
-403.99127197265625
 20
522.551025390625
 30
30.0
 11
-403.6877136230469
 21
522.9754028320312
 31
30.0
  0
LINE
  8
0
 10
-403.6877136230469
 20
522.9754028320312
 30
30.0
 11
-403.3555908203125
 21
523.380615234375
 31
30.0
  0
LINE
  8
0
 10
-403.3555908203125
 20
523.380615234375
 30
30.0
 11
-402.9954833984375
 21
523.7652587890625
 31
30.0
  0
LINE
  8
0
 10
-402.9954833984375
 20
523.7652587890625
 30
30.0
 11
-402.7831115722656
 21
523.9868774414062
 31
30.0
  0
LINE
  8
0
 10
-402.7831115722656
 20
523.9868774414062
 30
30.0
 11
-402.6034851074219
 21
524.1940307617188
 31
30.0
  0
LINE
  8
0
 10
-402.6034851074219
 20
524.1940307617188
 30
30.0
 11
-402.453369140625
 21
524.3895874023438
 31
30.0
  0
LINE
  8
0
 10
-402.453369140625
 20
524.3895874023438
 30
30.0
 11
-402.3294677734375
 21
524.576416015625
 31
30.0
  0
LINE
  8
0
 10
-402.3294677734375
 20
524.576416015625
 30
30.0
 11
-402.22845458984375
 21
524.7573852539062
 31
30.0
  0
LINE
  8
0
 10
-402.22845458984375
 20
524.7573852539062
 30
30.0
 11
-402.14715576171875
 21
524.935302734375
 31
30.0
  0
LINE
  8
0
 10
-402.14715576171875
 20
524.935302734375
 30
30.0
 11
-402.08221435546875
 21
525.1131591796875
 31
30.0
  0
LINE
  8
0
 10
-402.08221435546875
 20
525.1131591796875
 30
30.0
 11
-402.0303955078125
 21
525.2936401367188
 31
30.0
  0
LINE
  8
0
 10
-402.0303955078125
 20
525.2936401367188
 30
30.0
 11
-401.9884033203125
 21
525.479736328125
 31
30.0
  0
LINE
  8
0
 10
-401.9884033203125
 20
525.479736328125
 30
30.0
 11
-401.9530029296875
 21
525.67431640625
 31
30.0
  0
LINE
  8
0
 10
-401.9530029296875
 20
525.67431640625
 30
30.0
 11
-401.92083740234375
 21
525.8801879882812
 31
30.0
  0
LINE
  8
0
 10
-401.92083740234375
 20
525.8801879882812
 30
30.0
 11
-401.88873291015625
 21
526.1001586914062
 31
30.0
  0
LINE
  8
0
 10
-401.88873291015625
 20
526.1001586914062
 30
30.0
 11
-401.82037353515625
 21
526.5479736328125
 31
30.0
  0
LINE
  8
0
 10
-401.82037353515625
 20
526.5479736328125
 30
30.0
 11
-401.75628662109375
 21
526.9646606445312
 31
30.0
  0
LINE
  8
0
 10
-401.75628662109375
 20
526.9646606445312
 30
30.0
 11
-401.700439453125
 21
527.3828735351562
 31
30.0
  0
LINE
  8
0
 10
-401.700439453125
 20
527.3828735351562
 30
30.0
 11
-401.6569519042969
 21
527.8351440429688
 31
30.0
  0
LINE
  8
0
 10
-401.6569519042969
 20
527.8351440429688
 30
30.0
 11
-401.6299133300781
 21
528.3541259765625
 31
30.0
  0
LINE
  8
0
 10
-401.6299133300781
 20
528.3541259765625
 30
30.0
 11
-401.62335205078125
 21
528.9722290039062
 31
30.0
  0
LINE
  8
0
 10
-401.62335205078125
 20
528.9722290039062
 30
30.0
 11
-401.64141845703125
 21
529.72216796875
 31
30.0
  0
LINE
  8
0
 10
-401.64141845703125
 20
529.72216796875
 30
30.0
 11
-401.68817138671875
 21
530.636474609375
 31
30.0
  0
LINE
  8
0
 10
-401.68817138671875
 20
530.636474609375
 30
30.0
 11
-401.76763916015625
 21
531.7476806640625
 31
30.0
  0
LINE
  8
0
 10
-401.76763916015625
 20
531.7476806640625
 30
30.0
 11
-401.8839111328125
 21
533.0884399414062
 31
30.0
  0
LINE
  8
0
 10
-401.8839111328125
 20
533.0884399414062
 30
30.0
 11
-402.0411071777344
 21
534.6912231445312
 31
30.0
  0
LINE
  8
0
 10
-402.0411071777344
 20
534.6912231445312
 30
30.0
 11
-402.2432556152344
 21
536.5886840820312
 31
30.0
  0
LINE
  8
0
 10
-402.2432556152344
 20
536.5886840820312
 30
30.0
 11
-402.3423156738281
 21
537.3088989257812
 31
30.0
  0
LINE
  8
0
 10
-402.3423156738281
 20
537.3088989257812
 30
30.0
 11
-402.4798278808594
 21
538.0200805664062
 31
30.0
  0
LINE
  8
0
 10
-402.4798278808594
 20
538.0200805664062
 30
30.0
 11
-402.6551513671875
 21
538.7207641601562
 31
30.0
  0
LINE
  8
0
 10
-402.6551513671875
 20
538.7207641601562
 30
30.0
 11
-402.86767578125
 21
539.409423828125
 31
30.0
  0
LINE
  8
0
 10
-402.86767578125
 20
539.409423828125
 30
30.0
 11
-403.11663818359375
 21
540.0846557617188
 31
30.0
  0
LINE
  8
0
 10
-403.11663818359375
 20
540.0846557617188
 30
30.0
 11
-403.4013977050781
 21
540.7451171875
 31
30.0
  0
LINE
  8
0
 10
-403.4013977050781
 20
540.7451171875
 30
30.0
 11
-403.7213439941406
 21
541.3892211914062
 31
30.0
  0
LINE
  8
0
 10
-403.7213439941406
 20
541.3892211914062
 30
30.0
 11
-404.07574462890625
 21
542.015625
 31
30.0
  0
LINE
  8
0
 10
-404.07574462890625
 20
542.015625
 30
30.0
 11
-404.4639892578125
 21
542.6228637695312
 31
30.0
  0
LINE
  8
0
 10
-404.4639892578125
 20
542.6228637695312
 30
30.0
 11
-404.8853454589844
 21
543.2095336914062
 31
30.0
  0
LINE
  8
0
 10
-404.8853454589844
 20
543.2095336914062
 30
30.0
 11
-405.33917236328125
 21
543.7741088867188
 31
30.0
  0
LINE
  8
0
 10
-405.33917236328125
 20
543.7741088867188
 30
30.0
 11
-405.8248596191406
 21
544.3152465820312
 31
30.0
  0
LINE
  8
0
 10
-405.8248596191406
 20
544.3152465820312
 30
30.0
 11
-406.3392333984375
 21
544.8291625976562
 31
30.0
  0
LINE
  8
0
 10
-406.3392333984375
 20
544.8291625976562
 30
30.0
 11
-406.8787841796875
 21
545.3125610351562
 31
30.0
  0
LINE
  8
0
 10
-406.8787841796875
 20
545.3125610351562
 30
30.0
 11
-407.44207763671875
 21
545.7647705078125
 31
30.0
  0
LINE
  8
0
 10
-407.44207763671875
 20
545.7647705078125
 30
30.0
 11
-408.0277404785156
 21
546.1849365234375
 31
30.0
  0
LINE
  8
0
 10
-408.0277404785156
 20
546.1849365234375
 30
30.0
 11
-408.6343688964844
 21
546.5723876953125
 31
30.0
  0
LINE
  8
0
 10
-408.6343688964844
 20
546.5723876953125
 30
30.0
 11
-409.2605285644531
 21
546.9263305664062
 31
30.0
  0
LINE
  8
0
 10
-409.2605285644531
 20
546.9263305664062
 30
30.0
 11
-409.90484619140625
 21
547.24609375
 31
30.0
  0
LINE
  8
0
 10
-409.90484619140625
 20
547.24609375
 30
30.0
 11
-410.56591796875
 21
547.5308837890625
 31
30.0
  0
LINE
  8
0
 10
-410.56591796875
 20
547.5308837890625
 30
30.0
 11
-411.2423400878906
 21
547.780029296875
 31
30.0
  0
LINE
  8
0
 10
-411.2423400878906
 20
547.780029296875
 30
30.0
 11
-411.9327087402344
 21
547.99267578125
 31
30.0
  0
LINE
  8
0
 10
-411.9327087402344
 20
547.99267578125
 30
30.0
 11
-412.6356201171875
 21
548.1681518554688
 31
30.0
  0
LINE
  8
0
 10
-412.6356201171875
 20
548.1681518554688
 30
30.0
 11
-413.34967041015625
 21
548.3056640625
 31
30.0
  0
LINE
  8
0
 10
-413.34967041015625
 20
548.3056640625
 30
30.0
 11
-414.9515380859375
 21
548.5580444335938
 31
30.0
  0
LINE
  8
0
 10
-414.9515380859375
 20
548.5580444335938
 30
30.0
 11
-416.555908203125
 21
548.7884521484375
 31
30.0
  0
LINE
  8
0
 10
-416.555908203125
 20
548.7884521484375
 30
30.0
 11
-418.1624755859375
 21
548.9968872070312
 31
30.0
  0
LINE
  8
0
 10
-418.1624755859375
 20
548.9968872070312
 30
30.0
 11
-419.77105712890625
 21
549.1834106445312
 31
30.0
  0
LINE
  8
0
 10
-419.77105712890625
 20
549.1834106445312
 30
30.0
 11
-421.3814697265625
 21
549.3480224609375
 31
30.0
  0
LINE
  8
0
 10
-421.3814697265625
 20
549.3480224609375
 30
30.0
 11
-422.9934387207031
 21
549.4906616210938
 31
30.0
  0
LINE
  8
0
 10
-422.9934387207031
 20
549.4906616210938
 30
30.0
 11
-424.60675048828125
 21
549.611328125
 31
30.0
  0
LINE
  8
0
 10
-424.60675048828125
 20
549.611328125
 30
30.0
 11
-426.22119140625
 21
549.7100830078125
 31
30.0
  0
LINE
  8
0
 10
-426.22119140625
 20
549.7100830078125
 30
30.0
 11
-427.8365173339844
 21
549.786865234375
 31
30.0
  0
LINE
  8
0
 10
-427.8365173339844
 20
549.786865234375
 30
30.0
 11
-429.4525146484375
 21
549.8417358398438
 31
30.0
  0
LINE
  8
0
 10
-429.4525146484375
 20
549.8417358398438
 30
30.0
 11
-431.0689697265625
 21
549.8746948242188
 31
30.0
  0
LINE
  8
0
 10
-431.0689697265625
 20
549.8746948242188
 30
30.0
 11
-432.6856384277344
 21
549.8856201171875
 31
30.0
  0
LINE
  8
0
 10
-317.74554443359375
 20
322.03131103515625
 30
29.99998664855957
 11
-317.67706298828125
 21
323.04876708984375
 31
29.999988555908203
  0
LINE
  8
0
 10
-317.67706298828125
 20
323.04876708984375
 30
29.999988555908203
 11
-317.4775695800781
 21
324.0246887207031
 31
29.999988555908203
  0
LINE
  8
0
 10
-317.4775695800781
 20
324.0246887207031
 30
29.999988555908203
 11
-317.156005859375
 21
324.95013427734375
 31
29.999988555908203
  0
LINE
  8
0
 10
-317.156005859375
 20
324.95013427734375
 30
29.999988555908203
 11
-316.7213134765625
 21
325.816162109375
 31
29.999988555908203
  0
LINE
  8
0
 10
-316.7213134765625
 20
325.816162109375
 30
29.999988555908203
 11
-316.1824951171875
 21
326.61383056640625
 31
29.999988555908203
  0
LINE
  8
0
 10
-316.1824951171875
 20
326.61383056640625
 30
29.999988555908203
 11
-315.54840087890625
 21
327.33416748046875
 31
29.999988555908203
  0
LINE
  8
0
 10
-315.54840087890625
 20
327.33416748046875
 30
29.999988555908203
 11
-314.82806396484375
 21
327.9682312011719
 31
29.999988555908203
  0
LINE
  8
0
 10
-314.82806396484375
 20
327.9682312011719
 30
29.999988555908203
 11
-314.0304260253906
 21
328.507080078125
 31
29.999988555908203
  0
LINE
  8
0
 10
-314.0304260253906
 20
328.507080078125
 30
29.999988555908203
 11
-313.1643981933594
 21
328.9417724609375
 31
29.999988555908203
  0
LINE
  8
0
 10
-313.1643981933594
 20
328.9417724609375
 30
29.999988555908203
 11
-312.23895263671875
 21
329.2633361816406
 31
29.999988555908203
  0
LINE
  8
0
 10
-312.23895263671875
 20
329.2633361816406
 30
29.999988555908203
 11
-311.26300048828125
 21
329.46282958984375
 31
29.999988555908203
  0
LINE
  8
0
 10
-311.26300048828125
 20
329.46282958984375
 30
29.999988555908203
 11
-310.24554443359375
 21
329.53131103515625
 31
29.999988555908203
  0
LINE
  8
0
 10
-310.24554443359375
 20
329.53131103515625
 30
29.999988555908203
 11
-309.22808837890625
 21
329.46282958984375
 31
29.999988555908203
  0
LINE
  8
0
 10
-309.22808837890625
 20
329.46282958984375
 30
29.999988555908203
 11
-308.2521667480469
 21
329.2633361816406
 31
29.999988555908203
  0
LINE
  8
0
 10
-308.2521667480469
 20
329.2633361816406
 30
29.999988555908203
 11
-307.32672119140625
 21
328.9417724609375
 31
29.999988555908203
  0
LINE
  8
0
 10
-307.32672119140625
 20
328.9417724609375
 30
29.999988555908203
 11
-306.460693359375
 21
328.507080078125
 31
29.999988555908203
  0
LINE
  8
0
 10
-306.460693359375
 20
328.507080078125
 30
29.999988555908203
 11
-305.66302490234375
 21
327.9682312011719
 31
29.999988555908203
  0
LINE
  8
0
 10
-305.66302490234375
 20
327.9682312011719
 30
29.999988555908203
 11
-304.94268798828125
 21
327.33416748046875
 31
29.999988555908203
  0
LINE
  8
0
 10
-304.94268798828125
 20
327.33416748046875
 30
29.999988555908203
 11
-304.30865478515625
 21
326.61383056640625
 31
29.999988555908203
  0
LINE
  8
0
 10
-304.30865478515625
 20
326.61383056640625
 30
29.999988555908203
 11
-303.769775390625
 21
325.816162109375
 31
29.999988555908203
  0
LINE
  8
0
 10
-303.769775390625
 20
325.816162109375
 30
29.999988555908203
 11
-303.3351135253906
 21
324.95013427734375
 31
29.999988555908203
  0
LINE
  8
0
 10
-303.3351135253906
 20
324.95013427734375
 30
29.999988555908203
 11
-303.0135498046875
 21
324.0246887207031
 31
29.999988555908203
  0
LINE
  8
0
 10
-303.0135498046875
 20
324.0246887207031
 30
29.999988555908203
 11
-302.81402587890625
 21
323.04876708984375
 31
29.999988555908203
  0
LINE
  8
0
 10
-302.81402587890625
 20
323.04876708984375
 30
29.999988555908203
 11
-302.74554443359375
 21
322.03131103515625
 31
29.99998664855957
  0
LINE
  8
0
 10
-302.74554443359375
 20
322.03131103515625
 30
29.99998664855957
 11
-302.81402587890625
 21
321.01385498046875
 31
29.99998664855957
  0
LINE
  8
0
 10
-302.81402587890625
 20
321.01385498046875
 30
29.99998664855957
 11
-303.0135498046875
 21
320.0379333496094
 31
29.99998664855957
  0
LINE
  8
0
 10
-303.0135498046875
 20
320.0379333496094
 30
29.99998664855957
 11
-303.3351135253906
 21
319.11248779296875
 31
29.99998664855957
  0
LINE
  8
0
 10
-303.3351135253906
 20
319.11248779296875
 30
29.99998664855957
 11
-303.769775390625
 21
318.2464599609375
 31
29.99998664855957
  0
LINE
  8
0
 10
-303.769775390625
 20
318.2464599609375
 30
29.99998664855957
 11
-304.30865478515625
 21
317.44879150390625
 31
29.99998664855957
  0
LINE
  8
0
 10
-304.30865478515625
 20
317.44879150390625
 30
29.99998664855957
 11
-304.94268798828125
 21
316.72845458984375
 31
29.99998664855957
  0
LINE
  8
0
 10
-304.94268798828125
 20
316.72845458984375
 30
29.99998664855957
 11
-305.66302490234375
 21
316.0943908691406
 31
29.99998664855957
  0
LINE
  8
0
 10
-305.66302490234375
 20
316.0943908691406
 30
29.99998664855957
 11
-306.460693359375
 21
315.5555419921875
 31
29.99998664855957
  0
LINE
  8
0
 10
-306.460693359375
 20
315.5555419921875
 30
29.99998664855957
 11
-307.32672119140625
 21
315.120849609375
 31
29.99998664855957
  0
LINE
  8
0
 10
-307.32672119140625
 20
315.120849609375
 30
29.99998664855957
 11
-308.2521667480469
 21
314.7992858886719
 31
29.99998664855957
  0
LINE
  8
0
 10
-308.2521667480469
 20
314.7992858886719
 30
29.99998664855957
 11
-309.22808837890625
 21
314.59979248046875
 31
29.99998664855957
  0
LINE
  8
0
 10
-309.22808837890625
 20
314.59979248046875
 30
29.99998664855957
 11
-310.24554443359375
 21
314.53131103515625
 31
29.99998664855957
  0
LINE
  8
0
 10
-310.24554443359375
 20
314.53131103515625
 30
29.99998664855957
 11
-311.26300048828125
 21
314.59979248046875
 31
29.99998664855957
  0
LINE
  8
0
 10
-311.26300048828125
 20
314.59979248046875
 30
29.99998664855957
 11
-312.23895263671875
 21
314.7992858886719
 31
29.99998664855957
  0
LINE
  8
0
 10
-312.23895263671875
 20
314.7992858886719
 30
29.99998664855957
 11
-313.1643981933594
 21
315.120849609375
 31
29.99998664855957
  0
LINE
  8
0
 10
-313.1643981933594
 20
315.120849609375
 30
29.99998664855957
 11
-314.0304260253906
 21
315.5555419921875
 31
29.99998664855957
  0
LINE
  8
0
 10
-314.0304260253906
 20
315.5555419921875
 30
29.99998664855957
 11
-314.82806396484375
 21
316.0943908691406
 31
29.99998664855957
  0
LINE
  8
0
 10
-314.82806396484375
 20
316.0943908691406
 30
29.99998664855957
 11
-315.54840087890625
 21
316.72845458984375
 31
29.99998664855957
  0
LINE
  8
0
 10
-315.54840087890625
 20
316.72845458984375
 30
29.99998664855957
 11
-316.1824951171875
 21
317.44879150390625
 31
29.99998664855957
  0
LINE
  8
0
 10
-316.1824951171875
 20
317.44879150390625
 30
29.99998664855957
 11
-316.7213134765625
 21
318.2464599609375
 31
29.99998664855957
  0
LINE
  8
0
 10
-316.7213134765625
 20
318.2464599609375
 30
29.99998664855957
 11
-317.156005859375
 21
319.11248779296875
 31
29.99998664855957
  0
LINE
  8
0
 10
-317.156005859375
 20
319.11248779296875
 30
29.99998664855957
 11
-317.4775695800781
 21
320.0379333496094
 31
29.99998664855957
  0
LINE
  8
0
 10
-317.4775695800781
 20
320.0379333496094
 30
29.99998664855957
 11
-317.67706298828125
 21
321.01385498046875
 31
29.99998664855957
  0
LINE
  8
0
 10
-317.74554443359375
 20
322.03131103515625
 30
29.99998664855957
 11
-317.67706298828125
 21
321.01385498046875
 31
29.99998664855957
  0
ENDSEC
  0
EOF
